<svg xmlns="http://www.w3.org/2000/svg" xmlns:xlink="http://www.w3.org/1999/xlink" class="httpgd" width="1080.00" height="300.00" viewBox="0 0 1080.00 300.00">
<defs>
  <style type='text/css'><![CDATA[
    .httpgd line, .httpgd polyline, .httpgd polygon, .httpgd path, .httpgd rect, .httpgd circle {
      fill: none;
      stroke: #000000;
      stroke-linecap: round;
      stroke-linejoin: round;
      stroke-miterlimit: 10.00;
    }
  ]]></style>
<clipPath id="c0"><rect x="0.00" y="0.00" width="1080.00" height="300.00"/></clipPath>
<clipPath id="c1"><rect x="59.04" y="59.04" width="990.72" height="167.52"/></clipPath>
<clipPath id="c2"><rect x="0.00" y="0.00" width="1080.00" height="300.00"/></clipPath>
<clipPath id="c3"><rect x="59.04" y="59.04" width="990.72" height="167.52"/></clipPath>
<clipPath id="c4"><rect x="0.00" y="0.00" width="1080.00" height="300.00"/></clipPath>
</defs>
<rect width="100%" height="100%" style="stroke: none;fill: #FFFFFF;"/>
<g clip-path="url(#c0)">
</g><g clip-path="url(#c1)">
<line x1="95.73" y1="161.59" x2="95.73" y2="65.24" style="stroke-width: 0.75;"/>
<line x1="135.62" y1="161.59" x2="135.62" y2="161.73" style="stroke-width: 0.75;"/>
<line x1="175.50" y1="161.59" x2="175.50" y2="220.36" style="stroke-width: 0.75;"/>
<line x1="215.39" y1="161.59" x2="215.39" y2="159.42" style="stroke-width: 0.75;"/>
<line x1="255.27" y1="161.59" x2="255.27" y2="108.47" style="stroke-width: 0.75;"/>
<line x1="295.15" y1="161.59" x2="295.15" y2="159.30" style="stroke-width: 0.75;"/>
<line x1="335.04" y1="161.59" x2="335.04" y2="214.36" style="stroke-width: 0.75;"/>
<line x1="374.92" y1="161.59" x2="374.92" y2="162.71" style="stroke-width: 0.75;"/>
<line x1="414.81" y1="161.59" x2="414.81" y2="120.62" style="stroke-width: 0.75;"/>
<line x1="454.69" y1="161.59" x2="454.69" y2="156.63" style="stroke-width: 0.75;"/>
<line x1="494.57" y1="161.59" x2="494.57" y2="205.87" style="stroke-width: 0.75;"/>
<line x1="534.46" y1="161.59" x2="534.46" y2="162.62" style="stroke-width: 0.75;"/>
<line x1="574.34" y1="161.59" x2="574.34" y2="122.11" style="stroke-width: 0.75;"/>
<line x1="614.23" y1="161.59" x2="614.23" y2="163.33" style="stroke-width: 0.75;"/>
<line x1="654.11" y1="161.59" x2="654.11" y2="192.41" style="stroke-width: 0.75;"/>
<line x1="693.99" y1="161.59" x2="693.99" y2="159.01" style="stroke-width: 0.75;"/>
<line x1="733.88" y1="161.59" x2="733.88" y2="131.87" style="stroke-width: 0.75;"/>
<line x1="773.76" y1="161.59" x2="773.76" y2="164.47" style="stroke-width: 0.75;"/>
<line x1="813.65" y1="161.59" x2="813.65" y2="185.23" style="stroke-width: 0.75;"/>
<line x1="853.53" y1="161.59" x2="853.53" y2="161.32" style="stroke-width: 0.75;"/>
<line x1="893.41" y1="161.59" x2="893.41" y2="140.67" style="stroke-width: 0.75;"/>
<line x1="933.30" y1="161.59" x2="933.30" y2="161.76" style="stroke-width: 0.75;"/>
<line x1="973.18" y1="161.59" x2="973.18" y2="180.66" style="stroke-width: 0.75;"/>
<line x1="1013.07" y1="161.59" x2="1013.07" y2="161.84" style="stroke-width: 0.75;"/>
</g><g clip-path="url(#c2)">
<line x1="95.73" y1="226.56" x2="893.41" y2="226.56" style="stroke-width: 0.75;"/>
<line x1="95.73" y1="226.56" x2="95.73" y2="233.76" style="stroke-width: 0.75;"/>
<line x1="295.15" y1="226.56" x2="295.15" y2="233.76" style="stroke-width: 0.75;"/>
<line x1="494.57" y1="226.56" x2="494.57" y2="233.76" style="stroke-width: 0.75;"/>
<line x1="693.99" y1="226.56" x2="693.99" y2="233.76" style="stroke-width: 0.75;"/>
<line x1="893.41" y1="226.56" x2="893.41" y2="233.76" style="stroke-width: 0.75;"/>
<g><text x="95.73" y="252.48" text-anchor="middle" style="font-family: Arial;font-size: 12.00px;" textLength="6.67px" lengthAdjust="spacingAndGlyphs">0</text></g>
<g><text x="295.15" y="252.48" text-anchor="middle" style="font-family: Arial;font-size: 12.00px;" textLength="6.67px" lengthAdjust="spacingAndGlyphs">5</text></g>
<g><text x="494.57" y="252.48" text-anchor="middle" style="font-family: Arial;font-size: 12.00px;" textLength="13.35px" lengthAdjust="spacingAndGlyphs">10</text></g>
<g><text x="693.99" y="252.48" text-anchor="middle" style="font-family: Arial;font-size: 12.00px;" textLength="13.35px" lengthAdjust="spacingAndGlyphs">15</text></g>
<g><text x="893.41" y="252.48" text-anchor="middle" style="font-family: Arial;font-size: 12.00px;" textLength="13.35px" lengthAdjust="spacingAndGlyphs">20</text></g>
<line x1="59.04" y1="209.76" x2="59.04" y2="65.24" style="stroke-width: 0.75;"/>
<line x1="59.04" y1="209.76" x2="51.84" y2="209.76" style="stroke-width: 0.75;"/>
<line x1="59.04" y1="161.59" x2="51.84" y2="161.59" style="stroke-width: 0.75;"/>
<line x1="59.04" y1="113.42" x2="51.84" y2="113.42" style="stroke-width: 0.75;"/>
<line x1="59.04" y1="65.24" x2="51.84" y2="65.24" style="stroke-width: 0.75;"/>
<g><text transform="translate(41.76,209.76) rotate(-90.00)" text-anchor="middle" style="font-family: Arial;font-size: 12.00px;" textLength="20.68px" lengthAdjust="spacingAndGlyphs">-0.5</text></g>
<g><text transform="translate(41.76,161.59) rotate(-90.00)" text-anchor="middle" style="font-family: Arial;font-size: 12.00px;" textLength="16.68px" lengthAdjust="spacingAndGlyphs">0.0</text></g>
<g><text transform="translate(41.76,113.42) rotate(-90.00)" text-anchor="middle" style="font-family: Arial;font-size: 12.00px;" textLength="16.68px" lengthAdjust="spacingAndGlyphs">0.5</text></g>
<g><text transform="translate(41.76,65.24) rotate(-90.00)" text-anchor="middle" style="font-family: Arial;font-size: 12.00px;" textLength="16.68px" lengthAdjust="spacingAndGlyphs">1.0</text></g>
<polygon points="59.04,226.56 1049.76,226.56 1049.76,59.04 59.04,59.04" style="stroke-width: 0.75;" />
<g><text x="554.40" y="281.28" text-anchor="middle" style="font-family: Arial;font-size: 12.00px;" textLength="20.02px" lengthAdjust="spacingAndGlyphs">Lag</text></g>
<g><text transform="translate(12.96,142.80) rotate(-90.00)" text-anchor="middle" style="font-family: Arial;font-size: 12.00px;" textLength="24.00px" lengthAdjust="spacingAndGlyphs">ACF</text></g>
</g><g clip-path="url(#c3)">
<line x1="59.04" y1="161.59" x2="1049.76" y2="161.59" style="stroke-width: 0.75;"/>
<line x1="59.04" y1="148.24" x2="1049.76" y2="148.24" style="stroke-width: 0.75;stroke: #0000FF; stroke-dasharray: 4.00, 4.00;"/>
<line x1="59.04" y1="174.94" x2="1049.76" y2="174.94" style="stroke-width: 0.75;stroke: #0000FF; stroke-dasharray: 4.00, 4.00;"/>
</g><g clip-path="url(#c4)">
<g><text x="554.40" y="30.24" text-anchor="middle" style="font-family: Arial;font-size: 14.40px;font-weight: bold;" textLength="172.74px" lengthAdjust="spacingAndGlyphs">Autocovariance Function</text></g>
</g>
</svg>