<svg xmlns="http://www.w3.org/2000/svg" xmlns:xlink="http://www.w3.org/1999/xlink" class="httpgd" width="606.00" height="232.00" viewBox="0 0 606.00 232.00">
<defs>
  <style type='text/css'><![CDATA[
    .httpgd line, .httpgd polyline, .httpgd polygon, .httpgd path, .httpgd rect, .httpgd circle {
      fill: none;
      stroke: #000000;
      stroke-linecap: round;
      stroke-linejoin: round;
      stroke-miterlimit: 10.00;
    }
  ]]></style>
<clipPath id="c0"><rect x="0.00" y="0.00" width="606.00" height="232.00"/></clipPath>
<clipPath id="c1"><rect x="33.27" y="5.48" width="567.25" height="194.79"/></clipPath>
<clipPath id="c2"><rect x="0.00" y="0.00" width="606.00" height="232.00"/></clipPath>
</defs>
<rect width="100%" height="100%" style="stroke: none;fill: #FFFFFF;"/>
<g clip-path="url(#c0)">
<rect x="0.00" y="0.00" width="606.00" height="232.00" style="stroke-width: 1.07;stroke: #FFFFFF;fill: #FFFFFF;"/>
</g><g clip-path="url(#c1)">
<rect x="33.27" y="5.48" width="567.25" height="194.79" style="stroke-width: 1.07;stroke: none;fill: #EBEBEB;"/>
<polyline points="33.27,181.41 600.52,181.41" style="stroke-width: 0.53;stroke: #FFFFFF;stroke-linecap: butt;"/>
<polyline points="33.27,133.26 600.52,133.26" style="stroke-width: 0.53;stroke: #FFFFFF;stroke-linecap: butt;"/>
<polyline points="33.27,85.12 600.52,85.12" style="stroke-width: 0.53;stroke: #FFFFFF;stroke-linecap: butt;"/>
<polyline points="33.27,36.97 600.52,36.97" style="stroke-width: 0.53;stroke: #FFFFFF;stroke-linecap: butt;"/>
<polyline points="121.24,200.27 121.24,5.48" style="stroke-width: 0.53;stroke: #FFFFFF;stroke-linecap: butt;"/>
<polyline points="250.81,200.27 250.81,5.48" style="stroke-width: 0.53;stroke: #FFFFFF;stroke-linecap: butt;"/>
<polyline points="380.38,200.27 380.38,5.48" style="stroke-width: 0.53;stroke: #FFFFFF;stroke-linecap: butt;"/>
<polyline points="509.95,200.27 509.95,5.48" style="stroke-width: 0.53;stroke: #FFFFFF;stroke-linecap: butt;"/>
<polyline points="33.27,157.33 600.52,157.33" style="stroke-width: 1.07;stroke: #FFFFFF;stroke-linecap: butt;"/>
<polyline points="33.27,109.19 600.52,109.19" style="stroke-width: 1.07;stroke: #FFFFFF;stroke-linecap: butt;"/>
<polyline points="33.27,61.04 600.52,61.04" style="stroke-width: 1.07;stroke: #FFFFFF;stroke-linecap: butt;"/>
<polyline points="33.27,12.90 600.52,12.90" style="stroke-width: 1.07;stroke: #FFFFFF;stroke-linecap: butt;"/>
<polyline points="56.46,200.27 56.46,5.48" style="stroke-width: 1.07;stroke: #FFFFFF;stroke-linecap: butt;"/>
<polyline points="186.03,200.27 186.03,5.48" style="stroke-width: 1.07;stroke: #FFFFFF;stroke-linecap: butt;"/>
<polyline points="315.60,200.27 315.60,5.48" style="stroke-width: 1.07;stroke: #FFFFFF;stroke-linecap: butt;"/>
<polyline points="445.17,200.27 445.17,5.48" style="stroke-width: 1.07;stroke: #FFFFFF;stroke-linecap: butt;"/>
<polyline points="574.74,200.27 574.74,5.48" style="stroke-width: 1.07;stroke: #FFFFFF;stroke-linecap: butt;"/>
<polyline points="59.05,93.20 61.64,115.20 64.23,106.20 66.83,117.88 69.42,111.53 72.01,112.75 74.60,118.88 77.19,114.83 79.78,99.54 82.37,93.05 84.97,97.03 87.56,111.68 90.15,102.96 92.74,114.76 95.33,111.27 97.92,108.93 100.51,109.72 103.11,100.07 105.70,110.75 108.29,120.45 110.88,110.40 113.47,112.94 116.06,105.26 118.65,111.17 121.24,107.89 123.84,104.42 126.43,105.45 129.02,108.26 131.61,110.81 134.20,105.84 136.79,102.52 139.38,100.02 141.98,108.57 144.57,104.27 147.16,99.31 149.75,116.36 152.34,112.80 154.93,107.22 157.52,83.25 160.12,99.79 162.71,104.63 165.30,120.17 167.89,121.49 170.48,106.45 173.07,124.53 175.66,99.01 178.26,106.49 180.85,117.98 183.44,113.06 186.03,108.99 188.62,104.87 191.21,123.13 193.80,107.70 196.39,96.37 198.99,112.10 201.58,127.30 204.17,85.36 206.76,113.49 209.35,86.39 211.94,113.17 214.53,114.91 217.13,104.42 219.72,108.47 222.31,119.16 224.90,127.85 227.49,97.96 230.08,119.52 232.67,113.85 235.27,115.35 237.86,110.54 240.45,114.16 243.04,93.31 245.63,110.27 248.22,116.36 250.81,99.90 253.41,104.61 256.00,108.47 258.59,95.30 261.18,114.03 263.77,114.60 266.36,118.29 268.95,116.99 271.54,106.04 274.14,106.52 276.73,105.50 279.32,112.76 281.91,106.36 284.50,103.22 287.09,111.88 289.68,113.69 292.28,111.92 294.87,109.64 297.46,104.21 300.05,115.60 302.64,102.24 305.23,93.76 307.82,106.66 310.42,110.13 313.01,107.27 315.60,104.41 318.19,94.63 320.78,188.29 323.37,102.19 325.96,14.33 328.56,113.01 331.15,191.41 333.74,93.71 336.33,46.06 338.92,122.76 341.51,165.89 344.10,110.57 346.69,58.38 349.29,109.54 351.88,154.58 354.47,108.78 357.06,56.13 359.65,108.17 362.24,157.78 364.83,120.34 367.43,81.50 370.02,115.38 372.61,144.61 375.20,135.48 377.79,86.78 380.38,107.78 382.97,152.63 385.57,117.65 388.16,79.40 390.75,107.17 393.34,142.62 395.93,112.49 398.52,82.66 401.11,133.22 403.71,127.06 406.30,109.06 408.89,100.33 411.48,101.91 414.07,107.94 416.66,99.33 419.25,90.34 421.84,103.66 424.44,120.24 427.03,90.93 429.62,102.26 432.21,99.58 434.80,103.59 437.39,111.56 439.98,116.11 442.58,102.58 445.17,114.27 447.76,99.33 450.35,108.13 452.94,89.01 455.53,109.95 458.12,109.81 460.72,105.35 463.31,105.70 465.90,139.95 468.49,105.82 471.08,122.14 473.67,114.96 476.26,116.57 478.86,88.67 481.45,96.05 484.04,116.06 486.63,127.06 489.22,101.81 491.81,101.15 494.40,114.71 496.99,118.01 499.59,109.55 502.18,108.09 504.77,108.72 507.36,118.59 509.95,105.34 512.54,103.35 515.13,114.71 517.73,117.12 520.32,116.00 522.91,120.73 525.50,109.64 528.09,117.26 530.68,106.94 533.27,115.43 535.87,112.33 538.46,120.71 541.05,104.52 543.64,116.13 546.23,96.25 548.82,121.42 551.41,110.62 554.01,96.20 556.60,112.49 559.19,122.43 561.78,97.31 564.37,116.12 566.96,90.51 569.55,120.10 572.14,115.37 574.74,110.97" style="stroke-width: 1.07;stroke-linecap: butt;"/>
</g><g clip-path="url(#c2)">
<g><text x="28.34" y="160.49" text-anchor="end" style="font-family: Arial;font-size: 8.80px;fill: #4D4D4D;" textLength="7.83px" lengthAdjust="spacingAndGlyphs">-5</text></g>
<g><text x="28.34" y="112.34" text-anchor="end" style="font-family: Arial;font-size: 8.80px;fill: #4D4D4D;" textLength="4.90px" lengthAdjust="spacingAndGlyphs">0</text></g>
<g><text x="28.34" y="64.20" text-anchor="end" style="font-family: Arial;font-size: 8.80px;fill: #4D4D4D;" textLength="4.90px" lengthAdjust="spacingAndGlyphs">5</text></g>
<g><text x="28.34" y="16.05" text-anchor="end" style="font-family: Arial;font-size: 8.80px;fill: #4D4D4D;" textLength="9.79px" lengthAdjust="spacingAndGlyphs">10</text></g>
<polyline points="30.53,157.33 33.27,157.33" style="stroke-width: 1.07;stroke: #333333;stroke-linecap: butt;"/>
<polyline points="30.53,109.19 33.27,109.19" style="stroke-width: 1.07;stroke: #333333;stroke-linecap: butt;"/>
<polyline points="30.53,61.04 33.27,61.04" style="stroke-width: 1.07;stroke: #333333;stroke-linecap: butt;"/>
<polyline points="30.53,12.90 33.27,12.90" style="stroke-width: 1.07;stroke: #333333;stroke-linecap: butt;"/>
<polyline points="56.46,203.01 56.46,200.27" style="stroke-width: 1.07;stroke: #333333;stroke-linecap: butt;"/>
<polyline points="186.03,203.01 186.03,200.27" style="stroke-width: 1.07;stroke: #333333;stroke-linecap: butt;"/>
<polyline points="315.60,203.01 315.60,200.27" style="stroke-width: 1.07;stroke: #333333;stroke-linecap: butt;"/>
<polyline points="445.17,203.01 445.17,200.27" style="stroke-width: 1.07;stroke: #333333;stroke-linecap: butt;"/>
<polyline points="574.74,203.01 574.74,200.27" style="stroke-width: 1.07;stroke: #333333;stroke-linecap: butt;"/>
<g><text x="56.46" y="211.50" text-anchor="middle" style="font-family: Arial;font-size: 8.80px;fill: #4D4D4D;" textLength="4.90px" lengthAdjust="spacingAndGlyphs">0</text></g>
<g><text x="186.03" y="211.50" text-anchor="middle" style="font-family: Arial;font-size: 8.80px;fill: #4D4D4D;" textLength="9.79px" lengthAdjust="spacingAndGlyphs">50</text></g>
<g><text x="315.60" y="211.50" text-anchor="middle" style="font-family: Arial;font-size: 8.80px;fill: #4D4D4D;" textLength="14.69px" lengthAdjust="spacingAndGlyphs">100</text></g>
<g><text x="445.17" y="211.50" text-anchor="middle" style="font-family: Arial;font-size: 8.80px;fill: #4D4D4D;" textLength="14.69px" lengthAdjust="spacingAndGlyphs">150</text></g>
<g><text x="574.74" y="211.50" text-anchor="middle" style="font-family: Arial;font-size: 8.80px;fill: #4D4D4D;" textLength="14.69px" lengthAdjust="spacingAndGlyphs">200</text></g>
</g>
</svg>