<svg xmlns="http://www.w3.org/2000/svg" xmlns:xlink="http://www.w3.org/1999/xlink" class="httpgd" width="1080.00" height="300.00" viewBox="0 0 1080.00 300.00">
<defs>
  <style type='text/css'><![CDATA[
    .httpgd line, .httpgd polyline, .httpgd polygon, .httpgd path, .httpgd rect, .httpgd circle {
      fill: none;
      stroke: #000000;
      stroke-linecap: round;
      stroke-linejoin: round;
      stroke-miterlimit: 10.00;
    }
  ]]></style>
<clipPath id="c0"><rect x="0.00" y="0.00" width="1080.00" height="300.00"/></clipPath>
<clipPath id="c1"><rect x="36.20" y="23.34" width="957.44" height="244.93"/></clipPath>
<clipPath id="c2"><rect x="0.00" y="0.00" width="1080.00" height="300.00"/></clipPath>
</defs>
<rect width="100%" height="100%" style="stroke: none;fill: #FFFFFF;"/>
<g clip-path="url(#c0)">
<rect x="0.00" y="0.00" width="1080.00" height="300.00" style="stroke-width: 1.07;stroke: #FFFFFF;fill: #FFFFFF;"/>
</g><g clip-path="url(#c1)">
<rect x="36.20" y="23.34" width="957.44" height="244.93" style="stroke-width: 1.07;stroke: none;fill: #EBEBEB;"/>
<polyline points="36.20,223.08 993.63,223.08" style="stroke-width: 0.53;stroke: #FFFFFF;stroke-linecap: butt;"/>
<polyline points="36.20,172.08 993.63,172.08" style="stroke-width: 0.53;stroke: #FFFFFF;stroke-linecap: butt;"/>
<polyline points="36.20,121.08 993.63,121.08" style="stroke-width: 0.53;stroke: #FFFFFF;stroke-linecap: butt;"/>
<polyline points="36.20,70.08 993.63,70.08" style="stroke-width: 0.53;stroke: #FFFFFF;stroke-linecap: butt;"/>
<polyline points="184.69,268.27 184.69,23.34" style="stroke-width: 0.53;stroke: #FFFFFF;stroke-linecap: butt;"/>
<polyline points="403.38,268.27 403.38,23.34" style="stroke-width: 0.53;stroke: #FFFFFF;stroke-linecap: butt;"/>
<polyline points="622.08,268.27 622.08,23.34" style="stroke-width: 0.53;stroke: #FFFFFF;stroke-linecap: butt;"/>
<polyline points="840.77,268.27 840.77,23.34" style="stroke-width: 0.53;stroke: #FFFFFF;stroke-linecap: butt;"/>
<polyline points="36.20,248.58 993.63,248.58" style="stroke-width: 1.07;stroke: #FFFFFF;stroke-linecap: butt;"/>
<polyline points="36.20,197.58 993.63,197.58" style="stroke-width: 1.07;stroke: #FFFFFF;stroke-linecap: butt;"/>
<polyline points="36.20,146.58 993.63,146.58" style="stroke-width: 1.07;stroke: #FFFFFF;stroke-linecap: butt;"/>
<polyline points="36.20,95.58 993.63,95.58" style="stroke-width: 1.07;stroke: #FFFFFF;stroke-linecap: butt;"/>
<polyline points="36.20,44.59 993.63,44.59" style="stroke-width: 1.07;stroke: #FFFFFF;stroke-linecap: butt;"/>
<polyline points="75.34,268.27 75.34,23.34" style="stroke-width: 1.07;stroke: #FFFFFF;stroke-linecap: butt;"/>
<polyline points="294.04,268.27 294.04,23.34" style="stroke-width: 1.07;stroke: #FFFFFF;stroke-linecap: butt;"/>
<polyline points="512.73,268.27 512.73,23.34" style="stroke-width: 1.07;stroke: #FFFFFF;stroke-linecap: butt;"/>
<polyline points="731.42,268.27 731.42,23.34" style="stroke-width: 1.07;stroke: #FFFFFF;stroke-linecap: butt;"/>
<polyline points="950.11,268.27 950.11,23.34" style="stroke-width: 1.07;stroke: #FFFFFF;stroke-linecap: butt;"/>
<polyline points="79.72,146.58 84.09,146.58 88.47,146.58 92.84,146.58 97.21,146.58 101.59,146.58 105.96,146.58 110.33,146.58 114.71,146.58 119.08,146.58 123.46,146.58 127.83,146.58 132.20,146.58 136.58,146.58 140.95,146.58 145.33,146.58 149.70,146.58 154.07,146.58 158.45,146.58 162.82,146.58 167.19,146.58 171.57,146.58 175.94,146.58 180.32,146.58 184.69,146.58 189.06,146.58 193.44,146.58 197.81,146.58 202.19,146.58 206.56,146.58 210.93,146.58 215.31,146.58 219.68,146.58 224.05,146.58 228.43,146.58 232.80,146.58 237.18,146.58 241.55,146.58 245.92,146.58 250.30,146.58 254.67,146.58 259.05,146.58 263.42,146.58 267.79,146.58 272.17,146.58 276.54,146.58 280.92,146.58 285.29,146.58 289.66,146.58 294.04,146.58 298.41,146.58 302.78,146.58 307.16,146.58 311.53,146.58 315.91,146.58 320.28,146.58 324.65,146.58 329.03,146.58 333.40,146.58 337.78,146.58 342.15,146.58 346.52,146.58 350.90,146.58 355.27,146.58 359.64,146.58 364.02,146.58 368.39,146.58 372.77,146.58 377.14,146.58 381.51,146.58 385.89,146.58 390.26,146.58 394.64,146.58 399.01,146.58 403.38,146.58 407.76,146.58 412.13,146.58 416.50,146.58 420.88,146.58 425.25,146.58 429.63,146.58 434.00,146.58 438.37,146.58 442.75,146.58 447.12,146.58 451.50,146.58 455.87,146.58 460.24,146.58 464.62,146.58 468.99,146.58 473.36,146.58 477.74,146.58 482.11,146.58 486.49,146.58 490.86,146.58 495.23,146.58 499.61,146.58 503.98,146.58 508.36,146.58 512.73,146.58 517.10,146.58 521.48,247.56 525.85,146.58 530.22,46.61 534.60,146.58 538.97,245.56 543.35,146.58 547.72,48.59 552.09,146.58 556.47,243.60 560.84,146.58 565.22,50.53 569.59,146.58 573.96,241.68 578.34,146.58 582.71,52.43 587.08,146.58 591.46,239.80 595.83,146.58 600.21,54.29 604.58,146.58 608.95,237.95 613.33,146.58 617.70,56.12 622.08,146.58 626.45,236.14 630.82,146.58 635.20,57.91 639.57,146.58 643.94,234.37 648.32,146.58 652.69,59.67 657.07,146.58 661.44,232.63 665.81,146.58 670.19,61.39 674.56,146.58 678.94,230.93 683.31,146.58 687.68,63.07 692.06,146.58 696.43,229.26 700.80,146.58 705.18,64.73 709.55,146.58 713.93,227.62 718.30,146.58 722.67,66.35 727.05,146.58 731.42,226.02 735.80,146.58 740.17,67.94 744.54,146.58 748.92,224.44 753.29,146.58 757.67,69.49 762.04,146.58 766.41,222.90 770.79,146.58 775.16,71.02 779.53,146.58 783.91,221.39 788.28,146.58 792.66,72.52 797.03,146.58 801.40,219.91 805.78,146.58 810.15,73.98 814.53,146.58 818.90,218.46 823.27,146.58 827.65,75.42 832.02,146.58 836.39,217.03 840.77,146.58 845.14,76.83 849.52,146.58 853.89,215.64 858.26,146.58 862.64,78.21 867.01,146.58 871.39,214.27 875.76,146.58 880.13,79.57 884.51,146.58 888.88,212.93 893.25,146.58 897.63,80.89 902.00,146.58 906.38,211.62 910.75,146.58 915.12,82.19 919.50,146.58 923.87,210.33 928.25,146.58 932.62,83.47 936.99,146.58 941.37,209.07 945.74,146.58 950.11,84.72" style="stroke-width: 1.07;stroke: #F8766D;stroke-opacity: 0.70;stroke-linecap: butt;"/>
<polyline points="79.72,157.67 84.09,165.21 88.47,136.43 92.84,146.70 97.21,152.70 101.59,148.40 105.96,150.93 110.33,136.42 114.71,139.16 119.08,164.19 123.46,142.98 127.83,139.17 132.20,139.77 136.58,171.31 140.95,148.98 145.33,126.39 149.70,138.45 154.07,164.02 158.45,163.55 162.82,141.57 167.19,148.36 171.57,136.78 175.94,143.58 180.32,145.76 184.69,144.71 189.06,144.89 193.44,159.53 197.81,122.62 202.19,160.98 206.56,146.75 210.93,152.13 215.31,128.22 219.68,136.27 224.05,152.33 228.43,144.49 232.80,134.69 237.18,123.77 241.55,143.50 245.92,157.21 250.30,156.61 254.67,126.12 259.05,167.70 263.42,115.41 267.79,149.25 272.17,151.22 276.54,144.97 280.92,137.06 285.29,143.49 289.66,166.53 294.04,142.98 298.41,141.99 302.78,139.85 307.16,157.10 311.53,170.76 315.91,149.89 320.28,156.21 324.65,154.39 329.03,156.31 333.40,150.64 337.78,149.76 342.15,138.46 346.52,136.52 350.90,154.69 355.27,149.73 359.64,142.89 364.02,132.31 368.39,147.15 372.77,163.91 377.14,144.22 381.51,147.80 385.89,128.50 390.26,143.08 394.64,152.94 399.01,151.06 403.38,151.74 407.76,144.68 412.13,144.78 416.50,137.24 420.88,143.32 425.25,150.32 429.63,156.18 434.00,140.11 438.37,147.22 442.75,144.72 447.12,135.32 451.50,128.71 455.87,156.31 460.24,129.81 464.62,155.42 468.99,143.86 473.36,144.31 477.74,149.41 482.11,132.36 486.49,153.30 490.86,139.84 495.23,146.72 499.61,156.08 503.98,134.19 508.36,167.88 512.73,151.95 517.10,162.30 521.48,245.58 525.85,143.88 530.22,58.02 534.60,139.94 538.97,256.10 543.35,139.86 547.72,46.16 552.09,139.29 556.47,253.17 560.84,145.61 565.22,55.25 569.59,161.56 573.96,240.12 578.34,128.49 582.71,59.04 587.08,148.62 591.46,232.77 595.83,146.21 600.21,34.47 604.58,139.06 608.95,214.28 613.33,143.02 617.70,67.68 622.08,142.28 626.45,245.57 630.82,156.85 635.20,59.84 639.57,137.06 643.94,230.86 648.32,138.28 652.69,50.33 657.07,148.33 661.44,257.13 665.81,138.46 670.19,39.26 674.56,145.99 678.94,244.75 683.31,150.33 687.68,72.61 692.06,147.01 696.43,222.36 700.80,137.74 705.18,62.33 709.55,156.11 713.93,219.33 718.30,132.83 722.67,43.38 727.05,151.62 731.42,221.18 735.80,134.41 740.17,69.12 744.54,141.23 748.92,222.26 753.29,147.95 757.67,67.78 762.04,136.74 766.41,218.73 770.79,151.34 775.16,93.87 779.53,154.69 783.91,221.59 788.28,172.23 792.66,49.97 797.03,161.77 801.40,231.75 805.78,131.71 810.15,96.32 814.53,139.04 818.90,221.97 823.27,141.93 827.65,66.47 832.02,156.36 836.39,224.23 840.77,177.15 845.14,86.63 849.52,142.70 853.89,210.49 858.26,125.91 862.64,77.55 867.01,141.85 871.39,213.51 875.76,151.55 880.13,71.93 884.51,141.85 888.88,211.61 893.25,154.90 897.63,81.30 902.00,138.61 906.38,204.72 910.75,151.50 915.12,89.02 919.50,141.35 923.87,199.63 928.25,145.35 932.62,86.66 936.99,155.56 941.37,213.34 945.74,161.70 950.11,91.83" style="stroke-width: 1.07;stroke: #00BFC4;stroke-opacity: 0.70;stroke-linecap: butt;"/>
</g><g clip-path="url(#c2)">
<g><text x="31.27" y="251.73" text-anchor="end" style="font-family: Arial;font-size: 8.80px;fill: #4D4D4D;" textLength="12.72px" lengthAdjust="spacingAndGlyphs">-10</text></g>
<g><text x="31.27" y="200.73" text-anchor="end" style="font-family: Arial;font-size: 8.80px;fill: #4D4D4D;" textLength="7.83px" lengthAdjust="spacingAndGlyphs">-5</text></g>
<g><text x="31.27" y="149.73" text-anchor="end" style="font-family: Arial;font-size: 8.80px;fill: #4D4D4D;" textLength="4.90px" lengthAdjust="spacingAndGlyphs">0</text></g>
<g><text x="31.27" y="98.74" text-anchor="end" style="font-family: Arial;font-size: 8.80px;fill: #4D4D4D;" textLength="4.90px" lengthAdjust="spacingAndGlyphs">5</text></g>
<g><text x="31.27" y="47.74" text-anchor="end" style="font-family: Arial;font-size: 8.80px;fill: #4D4D4D;" textLength="9.79px" lengthAdjust="spacingAndGlyphs">10</text></g>
<polyline points="33.46,248.58 36.20,248.58" style="stroke-width: 1.07;stroke: #333333;stroke-linecap: butt;"/>
<polyline points="33.46,197.58 36.20,197.58" style="stroke-width: 1.07;stroke: #333333;stroke-linecap: butt;"/>
<polyline points="33.46,146.58 36.20,146.58" style="stroke-width: 1.07;stroke: #333333;stroke-linecap: butt;"/>
<polyline points="33.46,95.58 36.20,95.58" style="stroke-width: 1.07;stroke: #333333;stroke-linecap: butt;"/>
<polyline points="33.46,44.59 36.20,44.59" style="stroke-width: 1.07;stroke: #333333;stroke-linecap: butt;"/>
<polyline points="75.34,271.01 75.34,268.27" style="stroke-width: 1.07;stroke: #333333;stroke-linecap: butt;"/>
<polyline points="294.04,271.01 294.04,268.27" style="stroke-width: 1.07;stroke: #333333;stroke-linecap: butt;"/>
<polyline points="512.73,271.01 512.73,268.27" style="stroke-width: 1.07;stroke: #333333;stroke-linecap: butt;"/>
<polyline points="731.42,271.01 731.42,268.27" style="stroke-width: 1.07;stroke: #333333;stroke-linecap: butt;"/>
<polyline points="950.11,271.01 950.11,268.27" style="stroke-width: 1.07;stroke: #333333;stroke-linecap: butt;"/>
<g><text x="75.34" y="279.50" text-anchor="middle" style="font-family: Arial;font-size: 8.80px;fill: #4D4D4D;" textLength="4.90px" lengthAdjust="spacingAndGlyphs">0</text></g>
<g><text x="294.04" y="279.50" text-anchor="middle" style="font-family: Arial;font-size: 8.80px;fill: #4D4D4D;" textLength="9.79px" lengthAdjust="spacingAndGlyphs">50</text></g>
<g><text x="512.73" y="279.50" text-anchor="middle" style="font-family: Arial;font-size: 8.80px;fill: #4D4D4D;" textLength="14.69px" lengthAdjust="spacingAndGlyphs">100</text></g>
<g><text x="731.42" y="279.50" text-anchor="middle" style="font-family: Arial;font-size: 8.80px;fill: #4D4D4D;" textLength="14.69px" lengthAdjust="spacingAndGlyphs">150</text></g>
<g><text x="950.11" y="279.50" text-anchor="middle" style="font-family: Arial;font-size: 8.80px;fill: #4D4D4D;" textLength="14.69px" lengthAdjust="spacingAndGlyphs">200</text></g>
<rect x="1004.59" y="115.14" width="69.93" height="61.32" style="stroke-width: 1.07;stroke: none;fill: #FFFFFF;"/>
<g><text x="1010.07" y="129.73" style="font-family: Arial;font-size: 11.00px;" textLength="52.00px" lengthAdjust="spacingAndGlyphs">plot_group</text></g>
<rect x="1010.07" y="136.42" width="17.28" height="17.28" style="stroke-width: 1.07;stroke: none;fill: #F2F2F2;"/>
<line x1="1011.80" y1="145.06" x2="1025.62" y2="145.06" style="stroke-width: 1.07;stroke: #F8766D;stroke-opacity: 0.70;stroke-linecap: butt;"/>
<rect x="1010.07" y="153.70" width="17.28" height="17.28" style="stroke-width: 1.07;stroke: none;fill: #F2F2F2;"/>
<line x1="1011.80" y1="162.34" x2="1025.62" y2="162.34" style="stroke-width: 1.07;stroke: #00BFC4;stroke-opacity: 0.70;stroke-linecap: butt;"/>
<g><text x="1032.83" y="148.22" style="font-family: Arial;font-size: 8.80px;" textLength="36.21px" lengthAdjust="spacingAndGlyphs">mean_x2</text></g>
<g><text x="1032.83" y="165.50" style="font-family: Arial;font-size: 8.80px;" textLength="9.30px" lengthAdjust="spacingAndGlyphs">x2</text></g>
<g><text x="36.20" y="14.94" style="font-family: Arial;font-size: 13.20px;" textLength="189.90px" lengthAdjust="spacingAndGlyphs">Problem 1.5 (a); Modulator t/200</text></g>
</g>
</svg>