<svg xmlns="http://www.w3.org/2000/svg" xmlns:xlink="http://www.w3.org/1999/xlink" class="httpgd" width="1080.00" height="300.00" viewBox="0 0 1080.00 300.00">
<defs>
  <style type='text/css'><![CDATA[
    .httpgd line, .httpgd polyline, .httpgd polygon, .httpgd path, .httpgd rect, .httpgd circle {
      fill: none;
      stroke: #000000;
      stroke-linecap: round;
      stroke-linejoin: round;
      stroke-miterlimit: 10.00;
    }
  ]]></style>
<clipPath id="c0"><rect x="0.00" y="0.00" width="1080.00" height="300.00"/></clipPath>
<clipPath id="c1"><rect x="31.30" y="23.34" width="969.30" height="244.93"/></clipPath>
<clipPath id="c2"><rect x="0.00" y="0.00" width="1080.00" height="300.00"/></clipPath>
</defs>
<rect width="100%" height="100%" style="stroke: none;fill: #FFFFFF;"/>
<g clip-path="url(#c0)">
<rect x="0.00" y="0.00" width="1080.00" height="300.00" style="stroke-width: 1.07;stroke: #FFFFFF;fill: #FFFFFF;"/>
</g><g clip-path="url(#c1)">
<rect x="31.30" y="23.34" width="969.30" height="244.93" style="stroke-width: 1.07;stroke: none;fill: #EBEBEB;"/>
<polyline points="31.30,241.55 1000.60,241.55" style="stroke-width: 0.53;stroke: #FFFFFF;stroke-linecap: butt;"/>
<polyline points="31.30,184.94 1000.60,184.94" style="stroke-width: 0.53;stroke: #FFFFFF;stroke-linecap: butt;"/>
<polyline points="31.30,128.34 1000.60,128.34" style="stroke-width: 0.53;stroke: #FFFFFF;stroke-linecap: butt;"/>
<polyline points="31.30,71.73 1000.60,71.73" style="stroke-width: 0.53;stroke: #FFFFFF;stroke-linecap: butt;"/>
<polyline points="177.72,268.27 177.72,23.34" style="stroke-width: 0.53;stroke: #FFFFFF;stroke-linecap: butt;"/>
<polyline points="400.24,268.27 400.24,23.34" style="stroke-width: 0.53;stroke: #FFFFFF;stroke-linecap: butt;"/>
<polyline points="622.76,268.27 622.76,23.34" style="stroke-width: 0.53;stroke: #FFFFFF;stroke-linecap: butt;"/>
<polyline points="845.28,268.27 845.28,23.34" style="stroke-width: 0.53;stroke: #FFFFFF;stroke-linecap: butt;"/>
<polyline points="31.30,213.25 1000.60,213.25" style="stroke-width: 1.07;stroke: #FFFFFF;stroke-linecap: butt;"/>
<polyline points="31.30,156.64 1000.60,156.64" style="stroke-width: 1.07;stroke: #FFFFFF;stroke-linecap: butt;"/>
<polyline points="31.30,100.04 1000.60,100.04" style="stroke-width: 1.07;stroke: #FFFFFF;stroke-linecap: butt;"/>
<polyline points="31.30,43.43 1000.60,43.43" style="stroke-width: 1.07;stroke: #FFFFFF;stroke-linecap: butt;"/>
<polyline points="66.46,268.27 66.46,23.34" style="stroke-width: 1.07;stroke: #FFFFFF;stroke-linecap: butt;"/>
<polyline points="288.98,268.27 288.98,23.34" style="stroke-width: 1.07;stroke: #FFFFFF;stroke-linecap: butt;"/>
<polyline points="511.50,268.27 511.50,23.34" style="stroke-width: 1.07;stroke: #FFFFFF;stroke-linecap: butt;"/>
<polyline points="734.02,268.27 734.02,23.34" style="stroke-width: 1.07;stroke: #FFFFFF;stroke-linecap: butt;"/>
<polyline points="956.55,268.27 956.55,23.34" style="stroke-width: 1.07;stroke: #FFFFFF;stroke-linecap: butt;"/>
<polyline points="102.06,176.48 110.96,166.89 119.87,154.73 128.77,164.42 137.67,171.50 146.57,146.66 155.47,148.19 164.37,146.02 173.27,136.26 182.17,149.42 191.07,154.21 199.97,155.32 208.87,155.38 217.77,145.59 226.68,148.40 235.58,151.63 244.48,157.50 253.38,171.14 262.28,171.71 271.18,173.70 280.08,166.44 288.98,167.18 297.88,156.36 306.78,140.97 315.68,137.49 324.58,138.25 333.49,160.17 342.39,166.91 351.29,161.36 360.19,168.01 369.09,164.03 377.99,152.96 386.89,161.11 395.79,159.31 404.69,150.55 413.59,152.78 422.49,163.67 431.40,155.28 440.30,143.05 449.20,164.45 458.10,141.90 467.00,140.21 475.90,170.97 484.80,155.01 493.70,153.35 502.60,155.61 511.50,143.73 520.40,149.34 529.30,148.78 538.21,149.36 547.11,155.94 556.01,151.33 564.91,141.87 573.81,144.25 582.71,158.61 591.61,159.96 600.51,157.04 609.41,165.48 618.31,173.76 627.21,166.20 636.11,170.32 645.02,166.18 653.92,159.21 662.82,169.35 671.72,164.08 680.62,148.64 689.52,149.26 698.42,145.87 707.32,145.70 716.22,148.93 725.12,138.09 734.02,152.20 742.92,161.32 751.83,162.77 760.73,170.18 769.63,167.30 778.53,163.55 787.43,169.86 796.33,160.24 805.23,140.75 814.13,144.66 823.03,153.15 831.93,155.11 840.83,163.46 849.73,156.00 858.64,155.85 867.54,160.40 876.44,154.64 885.34,149.82 894.24,152.45 903.14,159.05 912.04,161.49 920.94,171.33 929.84,172.28 938.74,156.66 947.64,145.18 956.55,159.48" style="stroke-width: 1.07;stroke: #F8766D;stroke-opacity: 0.80;stroke-linecap: butt;"/>
<polyline points="75.36,172.19 84.26,128.00 93.16,186.12 102.06,219.61 110.96,133.82 119.87,79.36 128.77,224.90 137.67,247.91 146.57,34.47 155.47,85.48 164.37,216.20 173.27,208.88 182.17,87.12 191.07,104.65 199.97,220.61 208.87,209.14 217.77,47.98 226.68,115.87 235.58,233.52 244.48,232.61 253.38,102.55 262.28,118.14 271.18,241.52 280.08,203.56 288.98,105.52 297.88,74.84 306.78,179.94 315.68,189.65 324.58,108.56 333.49,162.54 342.39,206.90 351.29,167.43 360.19,135.19 369.09,146.59 377.99,162.63 386.89,200.06 395.79,127.95 404.69,111.55 413.59,171.56 422.49,243.61 431.40,94.41 440.30,62.63 449.20,257.13 458.10,153.43 467.00,87.64 475.90,185.69 484.80,193.27 493.70,146.81 502.60,96.66 511.50,138.20 520.40,215.68 529.30,144.59 538.21,98.97 547.11,164.52 556.01,197.26 564.91,106.75 573.81,108.47 582.71,221.94 591.61,202.69 600.51,95.06 609.41,142.22 618.31,255.09 627.21,172.44 636.11,111.53 645.02,125.69 653.92,227.19 662.82,212.99 671.72,90.45 680.62,63.92 689.52,229.69 698.42,199.42 707.32,89.78 716.22,76.82 725.12,186.35 734.02,255.86 742.92,126.26 751.83,82.61 760.73,216.01 769.63,244.33 778.53,111.27 787.43,107.81 796.33,177.53 805.23,166.38 814.13,126.90 823.03,141.78 831.93,185.38 840.83,199.79 849.73,97.03 858.64,141.21 867.54,203.55 876.44,176.75 885.34,77.76 894.24,151.76 903.14,229.94 912.04,186.50 920.94,117.13 929.84,155.56 938.74,167.47 947.64,140.54 956.55,174.36" style="stroke-width: 1.07;stroke: #00BFC4;stroke-opacity: 0.80;stroke-linecap: butt;"/>
</g><g clip-path="url(#c2)">
<g><text x="26.37" y="216.40" text-anchor="end" style="font-family: Arial;font-size: 8.80px;fill: #4D4D4D;" textLength="7.83px" lengthAdjust="spacingAndGlyphs">-2</text></g>
<g><text x="26.37" y="159.79" text-anchor="end" style="font-family: Arial;font-size: 8.80px;fill: #4D4D4D;" textLength="4.90px" lengthAdjust="spacingAndGlyphs">0</text></g>
<g><text x="26.37" y="103.19" text-anchor="end" style="font-family: Arial;font-size: 8.80px;fill: #4D4D4D;" textLength="4.90px" lengthAdjust="spacingAndGlyphs">2</text></g>
<g><text x="26.37" y="46.58" text-anchor="end" style="font-family: Arial;font-size: 8.80px;fill: #4D4D4D;" textLength="4.90px" lengthAdjust="spacingAndGlyphs">4</text></g>
<polyline points="28.56,213.25 31.30,213.25" style="stroke-width: 1.07;stroke: #333333;stroke-linecap: butt;"/>
<polyline points="28.56,156.64 31.30,156.64" style="stroke-width: 1.07;stroke: #333333;stroke-linecap: butt;"/>
<polyline points="28.56,100.04 31.30,100.04" style="stroke-width: 1.07;stroke: #333333;stroke-linecap: butt;"/>
<polyline points="28.56,43.43 31.30,43.43" style="stroke-width: 1.07;stroke: #333333;stroke-linecap: butt;"/>
<polyline points="66.46,271.01 66.46,268.27" style="stroke-width: 1.07;stroke: #333333;stroke-linecap: butt;"/>
<polyline points="288.98,271.01 288.98,268.27" style="stroke-width: 1.07;stroke: #333333;stroke-linecap: butt;"/>
<polyline points="511.50,271.01 511.50,268.27" style="stroke-width: 1.07;stroke: #333333;stroke-linecap: butt;"/>
<polyline points="734.02,271.01 734.02,268.27" style="stroke-width: 1.07;stroke: #333333;stroke-linecap: butt;"/>
<polyline points="956.55,271.01 956.55,268.27" style="stroke-width: 1.07;stroke: #333333;stroke-linecap: butt;"/>
<g><text x="66.46" y="279.50" text-anchor="middle" style="font-family: Arial;font-size: 8.80px;fill: #4D4D4D;" textLength="4.90px" lengthAdjust="spacingAndGlyphs">0</text></g>
<g><text x="288.98" y="279.50" text-anchor="middle" style="font-family: Arial;font-size: 8.80px;fill: #4D4D4D;" textLength="9.79px" lengthAdjust="spacingAndGlyphs">25</text></g>
<g><text x="511.50" y="279.50" text-anchor="middle" style="font-family: Arial;font-size: 8.80px;fill: #4D4D4D;" textLength="9.79px" lengthAdjust="spacingAndGlyphs">50</text></g>
<g><text x="734.02" y="279.50" text-anchor="middle" style="font-family: Arial;font-size: 8.80px;fill: #4D4D4D;" textLength="9.79px" lengthAdjust="spacingAndGlyphs">75</text></g>
<g><text x="956.55" y="279.50" text-anchor="middle" style="font-family: Arial;font-size: 8.80px;fill: #4D4D4D;" textLength="14.69px" lengthAdjust="spacingAndGlyphs">100</text></g>
<rect x="1011.56" y="115.14" width="62.96" height="61.32" style="stroke-width: 1.07;stroke: none;fill: #FFFFFF;"/>
<g><text x="1017.04" y="129.73" style="font-family: Arial;font-size: 11.00px;" textLength="52.00px" lengthAdjust="spacingAndGlyphs">plot_group</text></g>
<rect x="1017.04" y="136.42" width="17.28" height="17.28" style="stroke-width: 1.07;stroke: none;fill: #F2F2F2;"/>
<line x1="1018.77" y1="145.06" x2="1032.59" y2="145.06" style="stroke-width: 1.07;stroke: #F8766D;stroke-opacity: 0.80;stroke-linecap: butt;"/>
<rect x="1017.04" y="153.70" width="17.28" height="17.28" style="stroke-width: 1.07;stroke: none;fill: #F2F2F2;"/>
<line x1="1018.77" y1="162.34" x2="1032.59" y2="162.34" style="stroke-width: 1.07;stroke: #00BFC4;stroke-opacity: 0.80;stroke-linecap: butt;"/>
<g><text x="1039.80" y="148.22" style="font-family: Arial;font-size: 8.80px;" textLength="4.40px" lengthAdjust="spacingAndGlyphs">v</text></g>
<g><text x="1039.80" y="165.50" style="font-family: Arial;font-size: 8.80px;" textLength="4.40px" lengthAdjust="spacingAndGlyphs">x</text></g>
<g><text x="31.30" y="14.94" style="font-family: Arial;font-size: 13.20px;" textLength="90.91px" lengthAdjust="spacingAndGlyphs">Problem 1.3 (a)</text></g>
</g>
</svg>