<svg xmlns="http://www.w3.org/2000/svg" xmlns:xlink="http://www.w3.org/1999/xlink" class="httpgd" width="1080.00" height="400.00" viewBox="0 0 1080.00 400.00">
<defs>
  <style type='text/css'><![CDATA[
    .httpgd line, .httpgd polyline, .httpgd polygon, .httpgd path, .httpgd rect, .httpgd circle {
      fill: none;
      stroke: #000000;
      stroke-linecap: round;
      stroke-linejoin: round;
      stroke-miterlimit: 10.00;
    }
  ]]></style>
<clipPath id="c0"><rect x="0.00" y="0.00" width="1080.00" height="400.00"/></clipPath>
<clipPath id="c1"><rect x="38.64" y="5.48" width="953.05" height="362.79"/></clipPath>
<clipPath id="c2"><rect x="0.00" y="0.00" width="1080.00" height="400.00"/></clipPath>
</defs>
<rect width="100%" height="100%" style="stroke: none;fill: #FFFFFF;"/>
<g clip-path="url(#c0)">
<rect x="0.00" y="0.00" width="1080.00" height="400.00" style="stroke-width: 1.07;stroke: #FFFFFF;fill: #FFFFFF;"/>
</g><g clip-path="url(#c1)">
<rect x="38.64" y="5.48" width="953.05" height="362.79" style="stroke-width: 1.07;stroke: none;fill: #EBEBEB;"/>
<polyline points="38.64,328.49 991.69,328.49" style="stroke-width: 0.53;stroke: #FFFFFF;stroke-linecap: butt;"/>
<polyline points="38.64,233.26 991.69,233.26" style="stroke-width: 0.53;stroke: #FFFFFF;stroke-linecap: butt;"/>
<polyline points="38.64,138.02 991.69,138.02" style="stroke-width: 0.53;stroke: #FFFFFF;stroke-linecap: butt;"/>
<polyline points="38.64,42.79 991.69,42.79" style="stroke-width: 0.53;stroke: #FFFFFF;stroke-linecap: butt;"/>
<polyline points="187.35,368.27 187.35,5.48" style="stroke-width: 0.53;stroke: #FFFFFF;stroke-linecap: butt;"/>
<polyline points="398.98,368.27 398.98,5.48" style="stroke-width: 0.53;stroke: #FFFFFF;stroke-linecap: butt;"/>
<polyline points="610.61,368.27 610.61,5.48" style="stroke-width: 0.53;stroke: #FFFFFF;stroke-linecap: butt;"/>
<polyline points="822.24,368.27 822.24,5.48" style="stroke-width: 0.53;stroke: #FFFFFF;stroke-linecap: butt;"/>
<polyline points="38.64,280.87 991.69,280.87" style="stroke-width: 1.07;stroke: #FFFFFF;stroke-linecap: butt;"/>
<polyline points="38.64,185.64 991.69,185.64" style="stroke-width: 1.07;stroke: #FFFFFF;stroke-linecap: butt;"/>
<polyline points="38.64,90.41 991.69,90.41" style="stroke-width: 1.07;stroke: #FFFFFF;stroke-linecap: butt;"/>
<polyline points="81.54,368.27 81.54,5.48" style="stroke-width: 1.07;stroke: #FFFFFF;stroke-linecap: butt;"/>
<polyline points="293.17,368.27 293.17,5.48" style="stroke-width: 1.07;stroke: #FFFFFF;stroke-linecap: butt;"/>
<polyline points="504.79,368.27 504.79,5.48" style="stroke-width: 1.07;stroke: #FFFFFF;stroke-linecap: butt;"/>
<polyline points="716.42,368.27 716.42,5.48" style="stroke-width: 1.07;stroke: #FFFFFF;stroke-linecap: butt;"/>
<polyline points="928.05,368.27 928.05,5.48" style="stroke-width: 1.07;stroke: #FFFFFF;stroke-linecap: butt;"/>
<polyline points="81.96,186.22 82.38,185.82 82.81,186.37 83.23,185.74 83.65,185.87 84.08,186.08 84.50,185.94 84.92,187.20 85.35,186.62 85.77,184.82 86.19,184.20 86.62,184.23 87.04,184.20 87.46,185.10 87.88,185.21 88.31,183.54 88.73,184.31 89.15,184.02 89.58,183.63 90.00,184.20 90.42,183.57 90.85,184.02 91.27,184.14 91.69,184.98 92.12,184.76 92.54,183.59 92.96,185.30 93.39,186.03 93.81,187.03 94.23,189.63 94.66,188.39 95.08,186.56 95.50,186.69 95.93,185.21 96.35,184.08 96.77,185.36 97.20,186.32 97.62,184.82 98.04,187.68 98.47,192.88 98.89,194.05 99.31,194.35 99.74,192.82 100.16,188.68 100.58,185.58 101.01,181.09 101.43,177.53 101.85,172.72 102.28,168.46 102.70,172.21 103.12,186.78 103.55,213.40 103.97,220.25 104.39,204.17 104.82,192.03 105.24,166.59 105.66,161.88 106.08,170.88 106.51,170.75 106.93,175.24 107.35,177.94 107.78,193.54 108.20,223.10 108.62,229.12 109.05,230.65 109.47,189.02 109.89,117.77 110.32,102.97 110.74,152.06 111.16,209.60 111.59,230.71 112.01,212.34 112.43,195.07 112.86,185.82 113.28,181.23 113.70,204.23 114.13,195.71 114.55,162.32 114.97,158.72 115.40,160.54 115.82,200.67 116.24,226.80 116.67,223.13 117.09,200.85 117.51,168.86 117.94,141.35 118.36,131.24 118.78,159.89 119.21,171.62 119.63,235.77 120.05,303.13 120.48,249.40 120.90,195.54 121.32,147.58 121.75,99.71 122.17,124.58 122.59,175.25 123.02,204.11 123.44,215.16 123.86,217.48 124.29,229.28 124.71,197.07 125.13,151.73 125.55,134.71 125.98,157.14 126.40,216.62 126.82,221.94 127.25,206.79 127.67,183.41 128.09,158.94 128.52,160.26 128.94,163.86 129.36,184.70 129.79,193.36 130.21,206.76 130.63,185.53 131.06,187.43 131.48,208.84 131.90,201.48 132.33,178.72 132.75,158.40 133.17,136.37 133.60,160.80 134.02,189.92 134.44,208.17 134.87,238.09 135.29,230.76 135.71,185.06 136.14,170.15 136.56,143.00 136.98,123.53 137.41,182.65 137.83,198.90 138.25,189.59 138.68,210.03 139.10,216.06 139.52,195.47 139.95,167.83 140.37,141.13 140.79,161.00 141.22,194.03 141.64,187.66 142.06,159.10 142.49,193.81 142.91,202.50 143.33,190.69 143.76,189.28 144.18,184.06 144.60,160.02 145.02,151.57 145.45,156.33 145.87,195.11 146.29,234.38 146.72,227.02 147.14,193.31 147.56,155.39 147.99,142.65 148.41,145.97 148.83,172.83 149.26,223.25 149.68,228.90 150.10,205.66 150.53,163.66 150.95,151.54 151.37,180.21 151.80,205.81 152.22,217.56 152.64,197.32 153.07,178.76 153.49,144.72 153.91,141.75 154.34,182.61 154.76,220.17 155.18,222.52 155.61,215.81 156.03,198.16 156.45,171.81 156.88,155.04 157.30,149.27 157.72,182.28 158.15,213.89 158.57,210.49 158.99,199.56 159.42,163.46 159.84,159.22 160.26,170.88 160.69,209.27 161.11,214.63 161.53,208.00 161.96,203.60 162.38,156.00 162.80,155.39 163.22,170.61 163.65,185.82 164.07,209.52 164.49,216.45 164.92,204.27 165.34,191.96 165.76,185.67 166.19,159.95 166.61,160.82 167.03,180.32 167.46,169.97 167.88,202.04 168.30,217.17 168.73,202.69 169.15,196.07 169.57,192.17 170.00,165.60 170.42,173.96 170.84,188.47 171.27,185.97 171.69,197.56 172.11,190.85 172.54,173.98 172.96,193.65 173.38,184.13 173.81,170.08 174.23,189.41 174.65,195.00 175.08,190.56 175.50,204.02 175.92,200.83 176.35,185.88 176.77,177.91 177.19,166.82 177.62,176.55 178.04,194.69 178.46,196.77 178.89,202.80 179.31,194.55 179.73,181.82 180.16,183.45 180.58,186.39 181.00,185.85 181.43,200.81 181.85,191.29 182.27,172.11 182.69,170.39 183.12,173.48 183.54,186.09 183.96,207.81 184.39,208.72 184.81,196.74 185.23,182.00 185.66,164.96 186.08,163.63 186.50,171.86 186.93,177.80 187.35,189.86 187.77,201.58 188.20,198.63 188.62,187.07 189.04,184.91 189.47,174.66 189.89,168.49 190.31,179.97 190.74,184.65 191.16,189.34 191.58,186.39 192.01,185.07 192.43,185.27 192.85,174.43 193.28,184.48 193.70,189.75 194.12,186.30 194.55,189.03 194.97,191.79 195.39,185.53 195.82,174.86 196.24,177.92 196.66,182.06 197.09,187.15 197.51,188.24 197.93,186.32 198.36,193.23 198.78,193.04 199.20,175.75 199.63,174.12 200.05,184.38 200.47,183.19 200.89,191.29 201.32,201.42 201.74,196.15 202.16,185.52 202.59,180.83 203.01,176.69 203.43,176.95 203.86,174.85 204.28,168.30 204.70,179.26 205.13,194.61 205.55,199.84 205.97,199.73 206.40,192.55 206.82,185.24 207.24,167.60 207.67,167.44 208.09,173.11 208.51,176.76 208.94,189.35 209.36,196.10 209.78,192.04 210.21,188.61 210.63,188.68 211.05,177.53 211.48,162.66 211.90,172.56 212.32,181.71 212.75,197.31 213.17,208.79 213.59,196.02 214.02,189.27 214.44,181.39 214.86,167.10 215.29,170.62 215.71,185.84 216.13,185.60 216.56,193.54 216.98,193.74 217.40,194.77 217.83,204.60 218.25,196.90 218.67,182.48 219.10,175.33 219.52,169.94 219.94,172.80 220.36,186.08 220.79,190.40 221.21,193.27 221.63,208.40 222.06,196.24 222.48,181.35 222.90,176.15 223.33,173.47 223.75,182.56 224.17,184.04 224.60,187.41 225.02,192.70 225.44,196.46 225.87,188.11 226.29,184.05 226.71,182.68 227.14,173.52 227.56,177.58 227.98,183.33 228.41,189.89 228.83,196.40 229.25,194.00 229.68,194.35 230.10,184.67 230.52,180.71 230.95,177.15 231.37,182.63 231.79,178.07 232.22,183.04 232.64,196.49 233.06,194.09 233.49,186.05 233.91,183.61 234.33,186.53 234.76,187.43 235.18,188.89 235.60,185.92 236.03,185.05 236.45,190.06 236.87,179.74 237.30,186.61 237.72,190.97 238.14,188.14 238.56,189.27 238.99,192.70 239.41,188.25 239.83,188.78 240.26,192.13 240.68,178.06 241.10,178.15 241.53,187.15 241.95,179.48 242.37,176.38 242.80,190.71 243.22,197.57 243.64,187.83 244.07,193.26 244.49,187.23 244.91,190.80 245.34,193.60 245.76,172.08 246.18,178.26 246.61,191.47 247.03,183.19 247.45,183.45 247.88,200.41 248.30,198.37 248.72,177.93 249.15,173.22 249.57,177.33 249.99,180.89 250.42,193.27 250.84,194.63 251.26,196.39 251.69,196.21 252.11,180.57 252.53,175.42 252.96,170.10 253.38,169.20 253.80,182.32 254.23,193.17 254.65,201.10 255.07,197.12 255.50,194.81 255.92,181.53 256.34,168.14 256.77,170.13 257.19,179.39 257.61,184.70 258.03,188.44 258.46,196.27 258.88,186.80 259.30,179.39 259.73,183.28 260.15,176.96 260.57,186.26 261.00,183.11 261.42,173.24 261.84,185.26 262.27,189.40 262.69,184.72 263.11,194.34 263.54,194.21 263.96,180.80 264.38,176.30 264.81,173.72 265.23,173.13 265.65,190.41 266.08,194.80 266.50,191.09 266.92,194.83 267.35,184.79 267.77,173.02 268.19,178.37 268.62,186.47 269.04,188.59 269.46,197.07 269.89,193.13 270.31,183.59 270.73,178.13 271.16,174.30 271.58,186.78 272.00,191.96 272.43,186.03 272.85,189.88 273.27,194.55 273.70,187.72 274.12,178.25 274.54,180.23 274.97,179.48 275.39,182.18 275.81,197.08 276.24,195.34 276.66,192.90 277.08,183.77 277.50,180.32 277.93,179.92 278.35,181.49 278.77,192.67 279.20,195.60 279.62,185.91 280.04,184.57 280.47,193.03 280.89,191.96 281.31,190.40 281.74,191.28 282.16,177.06 282.58,178.13 283.01,177.58 283.43,179.60 283.85,199.18 284.28,194.48 284.70,186.25 285.12,188.68 285.55,181.49 285.97,178.13 286.39,185.81 286.82,185.54 287.24,184.81 287.66,189.28 288.09,186.14 288.51,184.05 288.93,192.10 289.36,189.17 289.78,181.80 290.20,179.33 290.63,180.45 291.05,180.60 291.47,187.43 291.90,194.12 292.32,191.06 292.74,187.03 293.17,180.01 293.59,178.95 294.01,181.28 294.44,182.18 294.86,194.98 295.28,197.45 295.70,194.65 296.13,185.72 296.55,175.77 296.97,173.97 297.40,172.23 297.82,184.78 298.24,192.18 298.67,190.56 299.09,192.66 299.51,185.47 299.94,181.04 300.36,182.41 300.78,185.36 301.21,187.62 301.63,185.15 302.05,183.56 302.48,186.49 302.90,185.54 303.32,187.26 303.75,189.16 304.17,187.53 304.59,181.72 305.02,173.86 305.44,187.38 305.86,192.50 306.29,194.10 306.71,194.28 307.13,186.49 307.56,181.56 307.98,172.60 308.40,180.70 308.83,194.86 309.25,192.60 309.67,195.79 310.10,187.72 310.52,182.89 310.94,177.19 311.37,173.07 311.79,185.41 312.21,193.78 312.64,191.60 313.06,183.50 313.48,186.91 313.91,186.14 314.33,176.67 314.75,186.91 315.17,181.72 315.60,177.12 316.02,188.85 316.44,188.31 316.87,181.04 317.29,184.19 317.71,182.03 318.14,170.78 318.56,188.80 318.98,192.80 319.41,193.88 319.83,191.68 320.25,183.63 320.68,180.62 321.10,185.18 321.52,189.02 321.95,185.21 322.37,191.39 322.79,185.61 323.22,180.20 323.64,191.57 324.06,191.16 324.49,182.20 324.91,179.24 325.33,187.37 325.76,180.99 326.18,189.36 326.60,196.58 327.03,188.52 327.45,190.66 327.87,186.04 328.30,181.94 328.72,178.23 329.14,177.89 329.57,176.59 329.99,183.43 330.41,204.41 330.84,199.42 331.26,193.58 331.68,189.66 332.11,165.81 332.53,161.20 332.95,177.07 333.37,180.05 333.80,193.95 334.22,204.35 334.64,199.94 335.07,201.87 335.49,194.63 335.91,177.33 336.34,169.34 336.76,170.24 337.18,171.47 337.61,187.85 338.03,205.87 338.45,200.76 338.88,200.23 339.30,187.38 339.72,170.87 340.15,171.31 340.57,173.97 340.99,184.73 341.42,191.77 341.84,191.00 342.26,191.60 342.69,196.43 343.11,193.37 343.53,191.75 343.96,188.23 344.38,168.48 344.80,166.51 345.23,172.46 345.65,178.46 346.07,193.75 346.50,207.09 346.92,198.82 347.34,184.23 347.77,176.52 348.19,173.11 348.61,173.66 349.04,181.80 349.46,183.77 349.88,198.46 350.31,197.63 350.73,181.31 351.15,178.44 351.58,179.43 352.00,173.67 352.42,180.09 352.84,192.52 353.27,186.53 353.69,183.99 354.11,199.44 354.54,196.09 354.96,191.00 355.38,178.70 355.81,166.64 356.23,171.12 356.65,168.85 357.08,179.64 357.50,198.65 357.92,212.01 358.35,198.15 358.77,193.84 359.19,187.31 359.62,177.29 360.04,178.15 360.46,173.03 360.89,174.28 361.31,194.67 361.73,193.47 362.16,192.68 362.58,188.89 363.00,181.80 363.43,175.51 363.85,180.24 364.27,182.88 364.70,193.05 365.12,204.81 365.54,192.12 365.97,175.77 366.39,182.35 366.81,176.50 367.24,185.18 367.66,189.40 368.08,191.93 368.51,190.28 368.93,180.29 369.35,180.48 369.78,183.15 370.20,180.09 370.62,193.74 371.04,197.49 371.47,193.12 371.89,192.41 372.31,188.20 372.74,178.36 373.16,181.33 373.58,189.53 374.01,181.45 374.43,182.67 374.85,186.44 375.28,179.38 375.70,191.26 376.12,195.28 376.55,191.26 376.97,199.34 377.39,188.77 377.82,181.08 378.24,184.97 378.66,188.43 379.09,177.31 379.51,182.68 379.93,189.76 380.36,191.74 380.78,195.24 381.20,181.57 381.63,176.82 382.05,185.63 382.47,185.95 382.90,181.97 383.32,189.86 383.74,198.04 384.17,184.43 384.59,178.02 385.01,175.43 385.44,177.37 385.86,190.58 386.28,183.48 386.71,189.01 387.13,194.01 387.55,188.19 387.98,176.20 388.40,172.43 388.82,174.58 389.25,173.74 389.67,184.99 390.09,192.24 390.51,190.07 390.94,191.16 391.36,186.53 391.78,180.70 392.21,178.68 392.63,175.33 393.05,181.57 393.48,185.78 393.90,187.18 394.32,186.72 394.75,185.89 395.17,175.49 395.59,172.80 396.02,179.90 396.44,178.87 396.86,195.30 397.29,204.68 397.71,192.11 398.13,197.35 398.56,194.73 398.98,179.23 399.40,169.56 399.83,173.61 400.25,176.09 400.67,191.32 401.10,199.09 401.52,189.73 401.94,200.78 402.37,200.79 402.79,190.33 403.21,195.33 403.64,187.44 404.06,175.90 404.48,175.60 404.91,178.69 405.33,172.55 405.75,192.06 406.18,197.39 406.60,188.66 407.02,193.28 407.45,191.30 407.87,185.06 408.29,182.96 408.72,179.54 409.14,178.64 409.56,183.23 409.98,181.05 410.41,180.32 410.83,191.36 411.25,190.18 411.68,186.59 412.10,193.86 412.52,186.30 412.95,180.42 413.37,186.08 413.79,187.50 414.22,181.80 414.64,181.99 415.06,182.56 415.49,187.51 415.91,183.11 416.33,178.96 416.76,186.70 417.18,192.69 417.60,183.13 418.03,188.70 418.45,187.88 418.87,190.89 419.30,191.05 419.72,186.56 420.14,181.83 420.57,178.23 420.99,178.18 421.41,175.25 421.84,184.26 422.26,189.09 422.68,194.36 423.11,194.89 423.53,175.10 423.95,185.45 424.38,194.80 424.80,183.29 425.22,182.15 425.65,185.90 426.07,182.13 426.49,180.55 426.92,194.67 427.34,193.02 427.76,192.73 428.18,184.12 428.61,179.83 429.03,182.42 429.45,178.10 429.88,187.17 430.30,193.48 430.72,191.27 431.15,187.00 431.57,180.70 431.99,188.00 432.42,179.83 432.84,181.25 433.26,187.44 433.69,181.02 434.11,182.34 434.53,194.05 434.96,192.36 435.38,190.20 435.80,192.41 436.23,191.93 436.65,186.72 437.07,189.36 437.50,179.95 437.92,174.25 438.34,175.61 438.77,184.74 439.19,192.61 439.61,199.74 440.04,196.86 440.46,190.76 440.88,187.69 441.31,183.55 441.73,179.11 442.15,178.51 442.58,181.64 443.00,185.35 443.42,189.36 443.85,196.27 444.27,194.12 444.69,186.00 445.12,172.29 445.54,173.71 445.96,185.60 446.39,183.73 446.81,174.49 447.23,172.46 447.65,181.89 448.08,190.89 448.50,189.63 448.92,202.10 449.35,195.68 449.77,171.08 450.19,161.56 450.62,168.25 451.04,180.86 451.46,177.74 451.89,184.21 452.31,195.01 452.73,189.83 453.16,191.96 453.58,184.78 454.00,184.75 454.43,180.27 454.85,177.20 455.27,185.36 455.70,180.64 456.12,183.27 456.54,184.03 456.97,180.40 457.39,196.21 457.81,202.76 458.24,189.64 458.66,173.57 459.08,183.11 459.51,183.26 459.93,186.87 460.35,192.83 460.78,189.42 461.20,195.03 461.62,175.41 462.05,163.63 462.47,190.51 462.89,198.74 463.32,194.50 463.74,197.79 464.16,203.07 464.59,184.67 465.01,167.85 465.43,160.72 465.85,167.73 466.28,196.36 466.70,204.42 467.12,202.18 467.55,200.47 467.97,184.36 468.39,174.70 468.82,177.34 469.24,177.38 469.66,182.55 470.09,198.53 470.51,192.97 470.93,193.70 471.36,199.39 471.78,187.48 472.20,186.21 472.63,180.05 473.05,177.64 473.47,188.45 473.90,194.23 474.32,196.30 474.74,199.90 475.17,203.17 475.59,200.65 476.01,190.60 476.44,180.86 476.86,170.84 477.28,169.90 477.71,179.01 478.13,192.82 478.55,197.95 478.98,207.55 479.40,209.93 479.82,194.72 480.25,176.14 480.67,171.17 481.09,168.42 481.52,172.80 481.94,193.20 482.36,194.27 482.79,190.56 483.21,190.82 483.63,179.90 484.06,181.97 484.48,183.07 484.90,187.90 485.32,188.88 485.75,184.17 486.17,174.35 486.59,169.81 487.02,180.17 487.44,183.92 487.86,189.16 488.29,190.24 488.71,190.13 489.13,190.87 489.56,175.43 489.98,170.95 490.40,172.89 490.83,180.79 491.25,180.59 491.67,183.58 492.10,192.40 492.52,188.89 492.94,191.30 493.37,181.13 493.79,172.10 494.21,182.70 494.64,178.74 495.06,183.11 495.48,183.65 495.91,175.96 496.33,184.59 496.75,190.48 497.18,188.02 497.60,182.44 498.02,186.53 498.45,181.77 498.87,181.96 499.29,184.43 499.72,185.32 500.14,192.94 500.56,191.30 500.99,185.91 501.41,192.10 501.83,187.46 502.26,177.48 502.68,173.61 503.10,185.53 503.52,185.16 503.95,202.10 504.37,203.66 504.79,192.50 505.22,183.68 505.64,175.31 506.06,174.19 506.49,171.93 506.91,174.87 507.33,179.35 507.76,193.15 508.18,209.72 508.60,193.53 509.03,184.47 509.45,186.78 509.87,172.14 510.30,165.55 510.72,179.70 511.14,189.40 511.57,193.86 511.99,199.91 512.41,188.15 512.84,189.12 513.26,185.75 513.68,178.13 514.11,176.61 514.53,184.75 514.95,175.08 515.38,166.46 515.80,167.69 516.22,192.41 516.65,204.49 517.07,188.19 517.49,182.23 517.92,189.71 518.34,183.05 518.76,184.98 519.19,187.81 519.61,186.82 520.03,183.58 520.46,186.35 520.88,179.03 521.30,187.62 521.73,193.11 522.15,186.12 522.57,187.74 522.99,185.72 523.42,173.49 523.84,186.61 524.26,190.45 524.69,179.72 525.11,190.43 525.53,201.58 525.96,184.47 526.38,185.81 526.80,196.52 527.23,187.91 527.65,192.54 528.07,184.79 528.50,171.05 528.92,172.28 529.34,182.84 529.77,178.87 530.19,183.96 530.61,189.97 531.04,184.97 531.46,189.24 531.88,188.99 532.31,179.27 532.73,186.88 533.15,195.40 533.58,192.27 534.00,191.73 534.42,197.95 534.85,177.49 535.27,164.08 535.69,184.39 536.12,181.12 536.54,170.53 536.96,187.78 537.39,195.92 537.81,198.35 538.23,195.37 538.66,201.47 539.08,197.35 539.50,194.19 539.93,191.76 540.35,179.33 540.77,181.53 541.20,160.45 541.62,147.30 542.04,172.75 542.46,189.64 542.89,206.70 543.31,220.25 543.73,236.78 544.16,214.84 544.58,184.84 545.00,162.06 545.43,140.99 545.85,159.66 546.27,181.18 546.70,194.29 547.12,220.37 547.54,231.95 547.97,206.00 548.39,182.30 548.81,162.90 549.24,136.12 549.66,139.30 550.08,170.31 550.51,189.10 550.93,208.73 551.35,221.34 551.78,218.42 552.20,213.84 552.62,228.54 553.05,217.60 553.47,189.38 553.89,139.05 554.32,108.99 554.74,122.29 555.16,163.82 555.59,206.76 556.01,247.51 556.43,274.64 556.86,226.29 557.28,161.36 557.70,105.27 558.13,105.80 558.55,139.99 558.97,191.35 559.40,265.96 559.82,287.89 560.24,252.20 560.66,215.70 561.09,163.90 561.51,135.79 561.93,126.93 562.36,104.63 562.78,87.69 563.20,118.43 563.63,170.92 564.05,245.99 564.47,329.98 564.90,351.78 565.32,294.59 565.74,198.21 566.17,94.57 566.59,34.33 567.01,45.32 567.44,84.26 567.86,160.52 568.28,218.49 568.71,272.26 569.13,300.19 569.55,265.60 569.98,221.03 570.40,190.29 570.82,172.00 571.25,154.88 571.67,123.36 572.09,124.06 572.52,137.38 572.94,147.64 573.36,170.15 573.79,229.83 574.21,284.95 574.63,281.69 575.06,257.84 575.48,191.96 575.90,101.23 576.33,58.92 576.75,47.26 577.17,136.55 577.60,248.46 578.02,268.90 578.44,210.45 578.87,198.36 579.29,220.59 579.71,228.21 580.13,219.56 580.56,165.52 580.98,132.45 581.40,143.19 581.83,118.10 582.25,126.48 582.67,183.89 583.10,238.45 583.52,277.54 583.94,255.50 584.37,231.14 584.79,175.82 585.21,86.84 585.64,50.99 586.06,131.21 586.48,232.83 586.91,274.39 587.33,235.76 587.75,160.48 588.18,151.78 588.60,191.20 589.02,172.92 589.45,186.23 589.87,244.64 590.29,209.99 590.72,127.34 591.14,114.21 591.56,113.18 591.99,181.11 592.41,239.98 592.83,231.22 593.26,225.45 593.68,231.13 594.10,208.26 594.53,148.89 594.95,148.24 595.37,145.92 595.80,156.69 596.22,163.46 596.64,136.19 597.07,215.75 597.49,301.85 597.91,285.41 598.33,209.84 598.76,166.02 599.18,132.78 599.60,83.83 600.03,103.67 600.45,178.57 600.87,250.58 601.30,289.91 601.72,237.58 602.14,219.62 602.57,254.86 602.99,189.48 603.41,101.41 603.84,111.43 604.26,119.46 604.68,148.89 605.11,234.61 605.53,236.88 605.95,185.93 606.38,178.33 606.80,165.50 607.22,196.92 607.65,276.13 608.07,257.61 608.49,171.24 608.92,120.43 609.34,112.92 609.76,124.19 610.19,178.77 610.61,209.58 611.03,202.36 611.46,187.81 611.88,178.61 612.30,201.13 612.73,240.60 613.15,248.90 613.57,201.60 614.00,135.17 614.42,122.52 614.84,124.38 615.27,147.45 615.69,199.19 616.11,243.51 616.54,268.44 616.96,252.44 617.38,181.85 617.80,127.02 618.23,122.25 618.65,157.11 619.07,190.64 619.50,199.28 619.92,213.91 620.34,199.15 620.77,176.67 621.19,167.91 621.61,205.07 622.04,233.00 622.46,205.44 622.88,175.50 623.31,148.91 623.73,167.11 624.15,146.03 624.58,131.15 625.00,184.56 625.42,215.15 625.85,238.03 626.27,257.04 626.69,225.86 627.12,181.89 627.54,140.11 627.96,116.53 628.39,120.89 628.81,161.82 629.23,193.88 629.66,223.29 630.08,232.65 630.50,204.38 630.93,189.07 631.35,186.75 631.77,162.85 632.20,160.75 632.62,163.62 633.04,183.69 633.47,205.05 633.89,213.42 634.31,219.86 634.74,213.31 635.16,163.40 635.58,134.41 636.00,168.31 636.43,182.15 636.85,204.43 637.27,216.77 637.70,182.15 638.12,164.69 638.54,169.09 638.97,182.36 639.39,195.42 639.81,203.98 640.24,179.61 640.66,154.38 641.08,185.22 641.51,195.64 641.93,201.97 642.35,226.29 642.78,196.28 643.20,150.28 643.62,162.28 644.05,170.00 644.47,174.86 644.89,176.04 645.32,176.77 645.74,182.49 646.16,216.70 646.59,233.43 647.01,203.21 647.43,197.23 647.86,163.10 648.28,130.85 648.70,133.68 649.13,160.12 649.55,206.39 649.97,232.46 650.40,235.17 650.82,210.84 651.24,186.54 651.67,182.49 652.09,158.99 652.51,152.81 652.94,156.27 653.36,193.00 653.78,206.88 654.21,203.57 654.63,211.39 655.05,216.59 655.47,204.47 655.90,183.72 656.32,168.30 656.74,168.53 657.17,171.89 657.59,176.73 658.01,170.79 658.44,193.79 658.86,201.38 659.28,199.83 659.71,222.23 660.13,206.45 660.55,193.85 660.98,190.19 661.40,158.16 661.82,145.02 662.25,162.98 662.67,198.63 663.09,219.12 663.52,220.82 663.94,195.06 664.36,174.19 664.79,181.41 665.21,172.56 665.63,183.25 666.06,180.62 666.48,180.36 666.90,192.67 667.33,183.61 667.75,158.91 668.17,180.10 668.60,213.99 669.02,209.73 669.44,191.93 669.87,185.71 670.29,166.35 670.71,149.82 671.14,141.75 671.56,172.88 671.98,212.45 672.41,209.31 672.83,202.16 673.25,192.10 673.68,165.70 674.10,161.79 674.52,175.81 674.94,182.33 675.37,179.98 675.79,178.75 676.21,177.33 676.64,195.70 677.06,202.12 677.48,184.19 677.91,199.61 678.33,185.91 678.75,149.29 679.18,158.04 679.60,184.67 680.02,206.92 680.45,217.15 680.87,193.51 681.29,183.82 681.72,181.76 682.14,163.52 682.56,157.28 682.99,187.41 683.41,193.85 683.83,198.48 684.26,196.86 684.68,178.92 685.10,189.74 685.53,179.71 685.95,166.28 686.37,193.88 686.80,190.53 687.22,174.39 687.64,183.97 688.07,200.53 688.49,182.29 688.91,179.59 689.34,180.58 689.76,182.13 690.18,198.40 690.61,195.90 691.03,191.50 691.45,201.44 691.88,188.77 692.30,162.15 692.72,159.96 693.14,152.55 693.57,159.45 693.99,215.49 694.41,240.51 694.84,235.24 695.26,203.93 695.68,159.02 696.11,129.34 696.53,139.12 696.95,170.97 697.38,197.47 697.80,218.84 698.22,209.48 698.65,190.94 699.07,196.54 699.49,185.68 699.92,174.17 700.34,169.28 700.76,167.46 701.19,178.36 701.61,181.36 702.03,182.89 702.46,199.07 702.88,203.03 703.30,194.19 703.73,185.29 704.15,187.96 704.57,179.84 705.00,162.70 705.42,162.86 705.84,191.27 706.27,225.92 706.69,212.36 707.11,199.86 707.54,196.36 707.96,163.43 708.38,148.76 708.81,171.62 709.23,209.04 709.65,234.36 710.08,219.86 710.50,192.87 710.92,181.17 711.35,161.00 711.77,154.68 712.19,181.91 712.61,202.96 713.04,198.47 713.46,192.23 713.88,197.00 714.31,183.24 714.73,193.14 715.15,203.21 715.58,199.70 716.00,195.36 716.42,189.13 716.85,183.04 717.27,171.89 717.69,181.83 718.12,201.47 718.54,208.00 718.96,193.20 719.39,160.58 719.81,170.00 720.23,187.86 720.66,201.11 721.08,212.78 721.50,211.94 721.93,179.82 722.35,146.57 722.77,150.32 723.20,163.88 723.62,191.23 724.04,211.04 724.47,200.91 724.89,204.16 725.31,197.73 725.74,167.21 726.16,145.54 726.58,148.20 727.01,167.84 727.43,182.74 727.85,193.30 728.28,199.47 728.70,217.53 729.12,202.54 729.55,172.55 729.97,172.69 730.39,171.23 730.81,155.49 731.24,156.36 731.66,170.34 732.08,183.93 732.51,194.72 732.93,209.11 733.35,217.95 733.78,221.25 734.20,199.31 734.62,168.85 735.05,158.44 735.47,153.71 735.89,155.97 736.32,179.38 736.74,203.85 737.16,211.08 737.59,205.51 738.01,203.83 738.43,189.93 738.86,162.35 739.28,157.51 739.70,170.06 740.13,181.72 740.55,172.84 740.97,180.01 741.40,197.94 741.82,200.92 742.24,187.79 742.67,175.23 743.09,177.37 743.51,175.36 743.94,160.50 744.36,166.12 744.78,177.72 745.21,184.29 745.63,185.99 746.05,198.70 746.48,189.38 746.90,178.88 747.32,172.69 747.75,176.32 748.17,190.92 748.59,202.96 749.02,201.41 749.44,186.27 749.86,175.67 750.28,176.84 750.71,183.63 751.13,195.69 751.55,197.26 751.98,200.84 752.40,204.22 752.82,200.18 753.25,189.13 753.67,204.84 754.09,206.94 754.52,183.76 754.94,184.75 755.36,190.46 755.79,179.94 756.21,174.25 756.63,180.99 757.06,188.06 757.48,192.62 757.90,193.22 758.33,187.16 758.75,199.96 759.17,189.48 759.60,159.07 760.02,171.98 760.44,182.18 760.87,184.15 761.29,197.79 761.71,193.03 762.14,182.30 762.56,190.19 762.98,180.62 763.41,174.11 763.83,174.77 764.25,177.88 764.68,191.60 765.10,207.23 765.52,213.42 765.95,215.26 766.37,196.06 766.79,170.23 767.22,163.53 767.64,179.78 768.06,184.47 768.48,190.65 768.91,204.86 769.33,209.65 769.75,186.91 770.18,176.43 770.60,178.68 771.02,180.31 771.45,178.96 771.87,182.91 772.29,185.99 772.72,187.30 773.14,174.89 773.56,169.89 773.99,182.57 774.41,191.86 774.83,177.48 775.26,186.36 775.68,192.47 776.10,186.80 776.53,182.34 776.95,187.82 777.37,199.19 777.80,200.17 778.22,181.30 778.64,172.70 779.07,177.14 779.49,180.79 779.91,183.09 780.34,192.64 780.76,203.07 781.18,194.32 781.61,188.47 782.03,178.68 782.45,170.12 782.88,170.25 783.30,173.46 783.72,181.03 784.15,195.07 784.57,202.28 784.99,195.94 785.42,191.65 785.84,172.49 786.26,158.12 786.69,176.77 787.11,182.11 787.53,183.39 787.95,181.31 788.38,194.96 788.80,194.05 789.22,190.68 789.65,196.04 790.07,188.03 790.49,198.92 790.92,173.10 791.34,151.96 791.76,165.81 792.19,183.74 792.61,191.13 793.03,201.89 793.46,207.48 793.88,190.87 794.30,166.90 794.73,162.44 795.15,172.51 795.57,192.21 796.00,191.82 796.42,181.47 796.84,181.03 797.27,180.15 797.69,182.59 798.11,193.94 798.54,203.06 798.96,202.43 799.38,188.32 799.81,168.82 800.23,159.12 800.65,167.04 801.08,187.94 801.50,202.13 801.92,209.26 802.35,207.63 802.77,193.55 803.19,175.72 803.62,164.23 804.04,174.41 804.46,180.79 804.89,191.36 805.31,198.47 805.73,194.33 806.15,194.44 806.58,180.07 807.00,182.59 807.42,201.71 807.85,192.59 808.27,188.00 808.69,173.49 809.12,179.84 809.54,177.00 809.96,174.27 810.39,191.98 810.81,207.00 811.23,213.59 811.66,197.47 812.08,181.51 812.50,172.54 812.93,169.38 813.35,177.39 813.77,187.75 814.20,206.32 814.62,198.07 815.04,179.34 815.47,182.04 815.89,189.11 816.31,185.05 816.74,184.81 817.16,177.41 817.58,178.92 818.01,196.10 818.43,203.63 818.85,206.41 819.28,193.06 819.70,174.68 820.12,169.27 820.55,164.19 820.97,172.26 821.39,196.07 821.82,212.65 822.24,204.01 822.66,197.61 823.09,191.73 823.51,180.90 823.93,171.89 824.36,162.36 824.78,177.45 825.20,181.00 825.62,183.59 826.05,203.22 826.47,210.70 826.89,196.52 827.32,177.07 827.74,174.33 828.16,167.03 828.59,165.15 829.01,168.25 829.43,179.03 829.86,206.84 830.28,195.90 830.70,186.01 831.13,185.37 831.55,173.11 831.97,159.86 832.40,163.01 832.82,181.76 833.24,195.60 833.67,207.76 834.09,190.52 834.51,179.42 834.94,179.20 835.36,172.40 835.78,171.62 836.21,182.23 836.63,189.90 837.05,192.20 837.48,197.34 837.90,188.76 838.32,185.98 838.75,197.26 839.17,172.58 839.59,168.05 840.02,175.40 840.44,186.61 840.86,197.44 841.29,205.88 841.71,201.64 842.13,188.43 842.56,176.29 842.98,159.25 843.40,163.39 843.83,186.37 844.25,194.44 844.67,207.10 845.09,209.03 845.52,183.82 845.94,179.28 846.36,177.33 846.79,176.26 847.21,179.13 847.63,177.27 848.06,185.05 848.48,179.42 848.90,184.60 849.33,197.88 849.75,202.51 850.17,200.74 850.60,187.05 851.02,181.69 851.44,180.09 851.87,173.92 852.29,167.51 852.71,172.40 853.14,192.25 853.56,196.14 853.98,198.09 854.41,198.87 854.83,190.34 855.25,173.01 855.68,167.85 856.10,173.91 856.52,180.21 856.95,192.80 857.37,184.82 857.79,187.72 858.22,195.99 858.64,199.80 859.06,193.64 859.49,183.65 859.91,183.73 860.33,179.30 860.76,178.68 861.18,178.21 861.60,177.80 862.03,193.66 862.45,194.84 862.87,191.15 863.29,198.93 863.72,200.41 864.14,191.58 864.56,193.41 864.99,194.12 865.41,185.09 865.83,176.83 866.26,175.40 866.68,178.75 867.10,193.88 867.53,207.51 867.95,200.80 868.37,183.81 868.80,175.10 869.22,167.77 869.64,176.24 870.07,193.79 870.49,200.42 870.91,207.50 871.34,201.66 871.76,182.73 872.18,182.49 872.61,171.17 873.03,165.09 873.45,184.51 873.88,190.18 874.30,190.12 874.72,201.76 875.15,198.44 875.57,184.83 875.99,191.60 876.42,184.12 876.84,174.89 877.26,176.55 877.69,168.59 878.11,171.97 878.53,199.60 878.96,208.53 879.38,209.54 879.80,198.25 880.23,174.89 880.65,165.04 881.07,169.69 881.50,164.91 881.92,177.54 882.34,191.49 882.76,204.12 883.19,207.86 883.61,197.96 884.03,185.24 884.46,177.03 884.88,162.45 885.30,171.45 885.73,187.70 886.15,186.45 886.57,186.10 887.00,186.50 887.42,187.76 887.84,185.81 888.27,186.05 888.69,172.44 889.11,168.09 889.54,179.94 889.96,184.86 890.38,202.20 890.81,209.22 891.23,187.50 891.65,168.88 892.08,162.91 892.50,174.80 892.92,179.92 893.35,183.09 893.77,190.07 894.19,191.37 894.62,195.06 895.04,188.11 895.46,184.34 895.89,190.72 896.31,184.55 896.73,174.31 897.16,180.06 897.58,190.54 898.00,196.60 898.43,193.64 898.85,192.87 899.27,195.97 899.70,184.44 900.12,167.06 900.54,164.83 900.96,184.38 901.39,198.05 901.81,206.05 902.23,204.92 902.66,190.92 903.08,182.29 903.50,166.41 903.93,158.70 904.35,179.69 904.77,190.63 905.20,202.49 905.62,197.87 906.04,187.98 906.47,181.68 906.89,175.42 907.31,165.52 907.74,171.42 908.16,185.43 908.58,189.29 909.01,194.76 909.43,192.60 909.85,187.71 910.28,188.13 910.70,179.93 911.12,173.45 911.55,190.62 911.97,187.26 912.39,183.32 912.82,198.18 913.24,193.88 913.66,184.82 914.09,180.07 914.51,172.45 914.93,180.42 915.36,189.09 915.78,194.31 916.20,194.74 916.63,202.29 917.05,190.04 917.47,185.45 917.90,183.55 918.32,167.56 918.74,170.32 919.17,174.73 919.59,183.81 920.01,200.91 920.43,208.01 920.86,199.06 921.28,185.40 921.70,178.43 922.13,176.01 922.55,170.99 922.97,174.92 923.40,187.14 923.82,197.54 924.24,199.15 924.67,199.59 925.09,181.12 925.51,175.28 925.94,174.38 926.36,173.08 926.78,184.51 927.21,194.50 927.63,193.94 928.05,184.89 928.48,181.75 928.90,184.30 929.32,191.70 929.75,197.26 930.17,178.60 930.59,173.78 931.02,177.02 931.44,171.18 931.86,182.73 932.29,203.98 932.71,204.97 933.13,198.40 933.56,184.15 933.98,173.08 934.40,166.30 934.83,179.20 935.25,194.45 935.67,202.07 936.10,199.85 936.52,181.13 936.94,175.83 937.37,176.35 937.79,181.95 938.21,188.52 938.63,186.61 939.06,194.11 939.48,191.55 939.90,185.20 940.33,180.83 940.75,186.90 941.17,196.25 941.60,185.91 942.02,184.22 942.44,180.11 942.87,179.08 943.29,180.46 943.71,181.10 944.14,195.62 944.56,203.93 944.98,187.91 945.41,171.80 945.83,175.56 946.25,177.24 946.68,184.16 947.10,194.32 947.52,199.39 947.95,193.91 948.37,177.76" style="stroke-width: 1.07;stroke: #F8766D;stroke-opacity: 0.75;stroke-linecap: butt;"/>
<polyline points="81.96,180.09 82.38,182.02 82.81,180.84 83.23,180.95 83.65,183.57 84.08,186.38 84.50,189.80 84.92,191.28 85.35,193.76 85.77,198.43 86.19,201.90 86.62,203.17 87.04,203.47 87.46,202.26 87.88,200.44 88.31,198.87 88.73,195.86 89.15,191.37 89.58,186.97 90.00,185.67 90.42,187.84 90.85,188.95 91.27,185.85 91.69,182.89 92.12,183.94 92.54,187.24 92.96,189.25 93.39,188.41 93.81,186.95 94.23,186.63 94.66,185.67 95.08,183.12 95.50,181.41 95.93,180.43 96.35,179.34 96.77,178.99 97.20,179.22 97.62,180.32 98.04,181.04 98.47,182.05 98.89,184.94 99.31,187.11 99.74,188.77 100.16,190.84 100.58,191.00 101.01,189.82 101.43,189.11 101.85,189.86 102.28,190.71 102.70,191.80 103.12,191.28 103.55,189.68 103.97,188.11 104.39,186.61 104.82,184.49 105.24,181.96 105.66,179.97 106.08,177.97 106.51,177.63 106.93,176.78 107.35,175.58 107.78,175.92 108.20,177.24 108.62,178.49 109.05,179.06 109.47,180.52 109.89,182.82 110.32,184.74 110.74,187.38 111.16,190.23 111.59,191.89 112.01,192.49 112.43,193.67 112.86,194.92 113.28,194.35 113.70,194.24 114.13,196.06 114.55,197.91 114.97,200.01 115.40,202.65 115.82,203.65 116.24,203.11 116.67,202.15 117.09,200.53 117.51,198.46 117.94,197.68 118.36,197.09 118.78,196.77 119.21,197.75 119.63,198.16 120.05,192.69 120.48,183.21 120.90,175.35 121.32,169.95 121.75,168.42 122.17,170.17 122.59,173.80 123.02,180.66 123.44,189.59 123.86,200.35 124.29,208.51 124.71,207.87 125.13,198.11 125.55,184.37 125.98,173.93 126.40,171.09 126.82,173.80 127.25,176.08 127.67,176.26 128.09,175.05 128.52,172.43 128.94,167.64 129.36,164.75 129.79,167.55 130.21,172.75 130.63,173.50 131.06,168.28 131.48,164.36 131.90,166.37 132.33,172.00 132.75,178.36 133.17,181.09 133.60,175.83 134.02,163.79 134.44,151.12 134.87,144.08 135.29,142.64 135.71,143.42 136.14,147.43 136.56,152.65 136.98,156.16 137.41,159.49 137.83,164.70 138.25,175.71 138.68,191.80 139.10,208.71 139.52,219.26 139.95,218.26 140.37,211.58 140.79,201.90 141.22,189.52 141.64,182.18 142.06,183.67 142.49,190.69 142.91,199.12 143.33,206.09 143.76,209.46 144.18,207.89 144.60,203.86 145.02,200.92 145.45,202.81 145.87,208.55 146.29,213.18 146.72,211.81 147.14,204.36 147.56,198.57 147.99,198.02 148.41,197.34 148.83,190.78 149.26,181.30 149.68,182.18 150.10,191.10 150.53,198.18 150.95,199.96 151.37,197.18 151.80,196.09 152.22,195.79 152.64,188.25 153.07,175.71 153.49,171.72 153.91,185.40 154.34,202.56 154.76,203.99 155.18,187.38 155.61,162.38 156.03,146.38 156.45,149.48 156.88,169.54 157.30,192.53 157.72,207.62 158.15,211.83 158.57,208.53 158.99,201.17 159.42,191.62 159.84,176.90 160.26,167.64 160.69,174.05 161.11,192.76 161.53,216.73 161.96,218.19 162.38,199.12 162.80,184.17 163.22,180.32 163.65,179.54 164.07,177.65 164.49,173.25 164.92,168.62 165.34,167.90 165.76,177.83 166.19,198.43 166.61,215.64 167.03,219.36 167.46,205.98 167.88,183.30 168.30,163.77 168.73,160.10 169.15,176.28 169.57,196.31 170.00,205.38 170.42,202.35 170.84,187.45 171.27,165.07 171.69,149.80 172.11,150.69 172.54,161.74 172.96,165.78 173.38,165.75 173.81,173.64 174.23,187.84 174.65,206.27 175.08,219.42 175.50,225.58 175.92,222.18 176.35,204.47 176.77,185.06 177.19,170.06 177.62,164.09 178.04,167.30 178.46,172.93 178.89,179.29 179.31,186.31 179.73,195.63 180.16,194.58 180.58,175.01 181.00,157.87 181.43,164.00 181.85,184.26 182.27,196.75 182.69,198.71 183.12,192.35 183.54,175.80 183.96,164.04 184.39,170.72 184.81,191.37 185.23,208.32 185.66,207.32 186.08,190.98 186.50,174.85 186.93,176.21 187.35,192.58 187.77,210.44 188.20,222.27 188.62,218.03 189.04,205.38 189.47,197.68 189.89,191.92 190.31,185.49 190.74,178.40 191.16,179.72 191.58,191.89 192.01,201.31 192.43,192.03 192.85,177.22 193.28,175.64 193.70,181.57 194.12,188.95 194.55,185.01 194.97,168.56 195.39,152.83 195.82,156.82 196.24,173.71 196.66,180.45 197.09,173.30 197.51,161.35 197.93,155.00 198.36,156.36 198.78,161.97 199.20,160.06 199.63,153.61 200.05,156.64 200.47,170.42 200.89,186.01 201.32,200.87 201.74,212.77 202.16,211.49 202.59,194.58 203.01,174.73 203.43,164.59 203.86,164.89 204.28,170.95 204.70,178.38 205.13,179.34 205.55,170.68 205.97,167.46 206.40,178.77 206.82,198.48 207.24,214.46 207.67,207.03 208.09,185.15 208.51,153.35 208.94,126.17 209.36,125.32 209.78,153.10 210.21,186.17 210.63,203.42 211.05,200.19 211.48,179.43 211.90,157.34 212.32,146.95 212.75,159.30 213.17,184.28 213.59,196.02 214.02,188.22 214.44,176.62 214.86,179.43 215.29,194.81 215.71,215.82 216.13,235.10 216.56,236.29 216.98,216.01 217.40,189.75 217.83,168.05 218.25,164.39 218.67,183.69 219.10,213.68 219.52,227.99 219.94,224.80 220.36,220.47 220.79,222.11 221.21,224.60 221.63,217.42 222.06,209.40 222.48,200.17 222.90,197.02 223.33,203.27 223.75,207.41 224.17,209.35 224.60,208.37 225.02,215.37 225.44,221.59 225.87,210.90 226.29,196.68 226.71,179.06 227.14,166.85 227.56,170.33 227.98,178.13 228.41,188.95 228.83,199.87 229.25,204.88 229.68,209.33 230.10,204.91 230.52,191.10 230.95,181.41 231.37,177.42 231.79,173.50 232.22,165.75 232.64,157.94 233.06,159.51 233.49,173.00 233.91,188.16 234.33,194.63 234.76,184.05 235.18,170.86 235.60,165.96 236.03,170.65 236.45,185.88 236.87,193.99 237.30,186.08 237.72,175.46 238.14,173.46 238.56,174.62 238.99,166.32 239.41,160.42 239.83,177.60 240.26,205.52 240.68,218.92 241.10,205.00 241.53,175.30 241.95,151.14 242.37,147.11 242.80,164.54 243.22,185.94 243.64,194.06 244.07,184.51 244.49,171.68 244.91,167.96 245.34,179.18 245.76,196.25 246.18,203.93 246.61,203.36 247.03,199.03 247.45,187.40 247.88,174.48 248.30,179.34 248.72,203.47 249.15,224.44 249.57,218.94 249.99,194.10 250.42,173.34 250.84,168.83 251.26,172.00 251.69,180.11 252.11,196.15 252.53,211.24 252.96,217.78 253.38,210.76 253.80,189.98 254.23,166.37 254.65,158.37 255.07,174.19 255.50,198.66 255.92,210.65 256.34,203.81 256.77,194.24 257.19,187.77 257.61,176.78 258.03,164.13 258.46,148.68 258.88,143.67 259.30,156.68 259.73,171.20 260.15,178.56 260.57,166.60 261.00,141.75 261.42,128.56 261.84,137.61 262.27,162.56 262.69,181.39 263.11,191.39 263.54,192.39 263.96,187.49 264.38,182.85 264.81,183.69 265.23,184.65 265.65,180.22 266.08,175.96 266.50,169.44 266.92,161.29 267.35,158.92 267.77,175.37 268.19,197.34 268.62,205.86 269.04,188.95 269.46,157.57 269.89,139.82 270.31,145.67 270.73,166.23 271.16,182.50 271.58,185.17 272.00,184.90 272.43,187.22 272.85,191.85 273.27,201.51 273.70,205.36 274.12,204.02 274.54,196.91 274.97,187.88 275.39,182.12 275.81,174.73 276.24,170.63 276.66,182.96 277.08,203.61 277.50,217.28 277.93,220.95 278.35,225.60 278.77,226.33 279.20,221.47 279.62,216.32 280.04,200.42 280.47,190.34 280.89,186.22 281.31,180.27 281.74,181.43 282.16,189.57 282.58,201.37 283.01,206.23 283.43,203.38 283.85,201.78 284.28,200.53 284.70,192.99 285.12,183.62 285.55,181.32 285.97,180.36 286.39,179.29 286.82,185.56 287.24,195.56 287.66,203.06 288.09,199.05 288.51,190.50 288.93,183.37 289.36,169.92 289.78,166.00 290.20,173.89 290.63,183.83 291.05,188.77 291.47,189.09 291.90,193.24 292.32,193.40 292.74,188.43 293.17,181.25 293.59,174.64 294.01,175.37 294.44,184.40 294.86,200.35 295.28,208.21 295.70,195.43 296.13,175.62 296.55,169.54 296.97,181.48 297.40,194.22 297.82,197.48 298.24,190.75 298.67,189.27 299.09,199.14 299.51,204.31 299.94,203.45 300.36,200.99 300.78,199.14 301.21,199.82 301.63,197.13 302.05,187.20 302.48,173.36 302.90,164.18 303.32,168.99 303.75,182.09 304.17,197.43 304.59,203.74 305.02,196.93 305.44,184.81 305.86,181.18 306.29,178.88 306.71,165.02 307.13,146.15 307.56,139.11 307.98,164.11 308.40,203.84 308.83,232.16 309.25,227.72 309.67,199.76 310.10,178.86 310.52,165.21 310.94,157.57 311.37,152.42 311.79,150.37 312.21,160.51 312.64,185.08 313.06,206.09 313.48,209.58 313.91,197.16 314.33,186.42 314.75,179.59 315.17,171.52 315.60,171.22 316.02,186.42 316.44,205.43 316.87,216.23 317.29,224.03 317.71,224.07 318.14,204.82 318.56,177.38 318.98,160.15 319.41,160.62 319.83,168.92 320.25,176.87 320.68,186.63 321.10,194.15 321.52,194.24 321.95,193.12 322.37,190.82 322.79,178.90 323.22,162.79 323.64,152.92 324.06,157.30 324.49,169.90 324.91,174.12 325.33,164.73 325.76,147.73 326.18,137.11 326.60,141.09 327.03,160.83 327.45,185.79 327.87,201.05 328.30,196.72 328.72,183.14 329.14,175.30 329.57,178.65 329.99,190.41 330.41,189.16 330.84,170.52 331.26,151.62 331.68,148.50 332.11,167.51 332.53,196.45 332.95,225.67 333.37,228.47 333.80,196.84 334.22,163.47 334.64,154.08 335.07,187.84 335.49,242.03 335.91,266.51 336.34,245.84 336.76,198.41 337.18,158.57 337.61,156.36 338.03,183.60 338.45,205.59 338.88,199.60 339.30,173.66 339.72,153.63 340.15,148.84 340.57,160.44 340.99,182.18 341.42,204.68 341.84,215.46 342.26,208.87 342.69,194.63 343.11,182.78 343.53,178.95 343.96,185.08 344.38,202.90 344.80,215.94 345.23,208.71 345.65,198.59 346.07,193.03 346.50,185.88 346.92,181.32 347.34,175.64 347.77,174.71 348.19,181.87 348.61,187.54 349.04,195.74 349.46,208.17 349.88,212.29 350.31,209.46 350.73,206.91 351.15,198.55 351.58,182.05 352.00,162.84 352.42,159.03 352.84,170.45 353.27,187.13 353.69,204.36 354.11,209.28 354.54,198.05 354.96,185.97 355.38,180.93 355.81,174.34 356.23,164.45 356.65,161.56 357.08,161.10 357.50,152.94 357.92,145.24 358.35,152.99 358.77,172.38 359.19,187.31 359.62,200.14 360.04,200.42 360.46,190.71 360.89,179.40 361.31,169.49 361.73,178.77 362.16,197.29 362.58,218.47 363.00,222.48 363.43,204.68 363.85,185.85 364.27,174.28 364.70,177.24 365.12,184.65 365.54,189.45 365.97,198.48 366.39,199.85 366.81,185.03 367.24,167.85 367.66,156.50 368.08,156.16 368.51,170.17 368.93,189.41 369.35,205.45 369.78,211.83 370.20,202.90 370.62,185.97 371.04,172.84 371.47,170.31 371.89,177.28 372.31,174.89 372.74,167.42 373.16,169.47 373.58,187.18 374.01,211.20 374.43,217.01 374.85,202.67 375.28,190.55 375.70,189.61 376.12,194.92 376.55,199.35 376.97,201.40 377.39,198.91 377.82,186.31 378.24,170.38 378.66,170.06 379.09,192.42 379.51,208.10 379.93,195.70 380.36,172.59 380.78,155.59 381.20,154.49 381.63,170.17 382.05,182.07 382.47,185.12 382.90,177.85 383.32,165.96 383.74,156.16 384.17,155.95 384.59,165.75 385.01,184.83 385.44,206.84 385.86,218.19 386.28,219.04 386.71,215.09 387.13,203.13 387.55,187.27 387.98,177.33 388.40,181.25 388.82,196.79 389.25,205.29 389.67,196.20 390.09,185.92 390.51,181.23 390.94,184.51 391.36,190.07 391.78,182.50 392.21,189.61 392.63,200.55 393.05,198.00 393.48,186.74 393.90,167.67 394.32,156.18 394.75,153.54 395.17,165.32 395.59,190.41 396.02,203.47 396.44,198.75 396.86,182.39 397.29,169.81 397.71,173.98 398.13,182.18 398.56,186.77 398.98,179.22 399.40,164.80 399.83,159.99 400.25,173.82 400.67,197.00 401.10,210.33 401.52,202.60 401.94,187.79 402.37,181.36 402.79,185.28 403.21,190.23 403.64,184.65 404.06,176.81 404.48,173.52 404.91,166.78 405.33,161.56 405.75,170.95 406.18,190.57 406.60,202.51 407.02,202.58 407.45,191.55 407.87,177.60 408.29,167.96 408.72,165.25 409.14,178.36 409.56,188.11 409.98,184.96 410.41,185.44 410.83,191.57 411.25,199.57 411.68,201.60 412.10,194.10 412.52,176.90 412.95,168.40 413.37,172.20 413.79,186.22 414.22,202.31 414.64,206.89 415.06,200.67 415.49,192.87 415.91,189.98 416.33,192.69 416.76,196.41 417.18,202.54 417.60,212.56 418.03,222.80 418.45,232.60 418.87,226.49 419.30,202.35 419.72,181.87 420.14,171.02 420.57,170.13 420.99,184.14 421.41,202.81 421.84,215.32 422.26,214.89 422.68,197.84 423.11,180.16 423.53,170.22 423.95,170.56 424.38,183.62 424.80,191.03 425.22,184.05 425.65,171.63 426.07,169.22 426.49,177.72 426.92,186.26 427.34,187.08 427.76,185.26 428.18,198.55 428.61,216.05 429.03,216.46 429.45,199.50 429.88,169.56 430.30,148.50 430.72,154.72 431.15,173.87 431.57,192.19 431.99,205.00 432.42,206.14 432.84,199.07 433.26,187.34 433.69,172.41 434.11,158.53 434.53,146.93 434.96,142.37 435.38,150.76 435.80,160.37 436.23,166.94 436.65,172.20 437.07,174.28 437.50,173.02 437.92,169.88 438.34,161.35 438.77,141.21 439.19,121.95 439.61,122.77 440.04,136.29 440.46,158.51 440.88,177.65 441.31,186.38 441.73,189.86 442.15,188.66 442.58,182.59 443.00,176.90 443.42,175.62 443.85,179.88 444.27,187.45 444.69,194.26 445.12,193.81 445.54,195.59 445.96,207.98 446.39,225.65 446.81,232.00 447.23,208.37 447.65,165.02 448.08,142.55 448.50,159.19 448.92,198.82 449.35,227.61 449.77,233.49 450.19,231.00 450.62,220.36 451.04,208.37 451.46,209.65 451.89,223.96 452.31,230.25 452.73,207.50 453.16,171.25 453.58,148.66 454.00,150.69 454.43,169.81 454.85,190.50 455.27,212.65 455.70,230.00 456.12,238.48 456.54,233.05 456.97,209.53 457.39,190.59 457.81,191.00 458.24,194.56 458.66,193.06 459.08,193.65 459.51,191.12 459.93,182.16 460.35,165.98 460.78,157.57 461.20,170.29 461.62,192.83 462.05,204.77 462.47,199.30 462.89,185.08 463.32,173.64 463.74,171.72 464.16,180.93 464.59,187.31 465.01,185.12 465.43,188.13 465.85,199.30 466.28,212.18 466.70,209.76 467.12,186.15 467.55,167.67 467.97,162.45 468.39,164.96 468.82,179.81 469.24,192.26 469.66,189.07 470.09,176.58 470.51,169.90 470.93,169.03 471.36,164.23 471.78,172.11 472.20,190.55 472.63,201.92 473.05,194.76 473.47,176.44 473.90,170.74 474.32,176.62 474.74,176.49 475.17,165.48 475.59,154.79 476.01,158.28 476.44,177.40 476.86,193.94 477.28,198.84 477.71,203.08 478.13,206.98 478.55,205.48 478.98,196.22 479.40,178.65 479.82,164.64 480.25,163.18 480.67,171.63 481.09,178.33 481.52,171.59 481.94,157.55 482.36,158.25 482.79,176.67 483.21,193.42 483.63,195.20 484.06,182.39 484.48,176.78 484.90,186.33 485.32,196.54 485.75,197.68 486.17,189.32 486.59,174.23 487.02,158.51 487.44,151.96 487.86,156.73 488.29,163.91 488.71,170.93 489.13,177.65 489.56,190.23 489.98,204.52 490.40,207.62 490.83,197.20 491.25,175.89 491.67,159.69 492.10,156.80 492.52,166.62 492.94,188.45 493.37,201.46 493.79,204.06 494.21,201.03 494.64,192.55 495.06,195.95 495.48,205.91 495.91,214.02 496.33,214.68 496.75,198.87 497.18,185.76 497.60,185.19 498.02,193.85 498.45,212.77 498.87,222.66 499.29,207.16 499.72,181.55 500.14,170.27 500.56,172.54 500.99,179.29 501.41,177.51 501.83,168.72 502.26,165.46 502.68,161.24 503.10,161.49 503.52,168.97 503.95,188.77 504.37,204.56 504.79,209.83 505.22,201.94 505.64,179.38 506.06,167.14 506.49,171.22 506.91,183.44 507.33,192.80 507.76,188.95 508.18,186.88 508.60,194.79 509.03,199.98 509.45,200.28 509.87,191.14 510.30,175.67 510.72,168.85 511.14,176.53 511.57,184.83 511.99,183.69 512.41,181.43 512.84,182.53 513.26,181.34 513.68,178.06 514.11,175.76 514.53,176.67 514.95,182.73 515.38,228.56 515.80,216.51 516.22,211.15 516.65,213.16 517.07,214.89 517.49,209.12 517.92,188.79 518.34,171.09 518.76,165.07 519.19,159.62 519.61,154.43 520.03,156.25 520.46,168.60 520.88,182.75 521.30,191.71 521.73,193.15 522.15,190.30 522.57,189.30 522.99,188.00 523.42,177.74 523.84,159.96 524.26,147.09 524.69,151.62 525.11,168.90 525.53,193.74 525.96,222.43 526.38,246.63 526.80,249.69 527.23,232.23 527.65,213.82 528.07,205.86 528.50,198.62 528.92,178.77 529.34,148.68 529.77,128.79 530.19,130.50 530.61,140.57 531.04,151.28 531.46,161.83 531.88,167.80 532.31,166.92 532.73,165.11 533.15,161.33 533.58,158.76 534.00,159.60 534.42,167.85 534.85,183.42 535.27,197.82 535.69,202.83 536.12,198.30 536.54,196.68 536.96,207.39 537.39,224.32 537.81,237.25 538.23,247.89 538.66,256.41 539.08,260.83 539.50,253.40 539.93,234.49 540.35,213.11 540.77,194.31 541.20,187.38 541.62,184.87 542.04,180.13 542.46,172.02 542.89,160.92 543.31,149.69 543.73,144.79 544.16,144.42 544.58,147.75 545.00,157.41 545.43,167.17 545.85,172.27 546.27,174.85 546.70,179.54 547.12,185.24 547.54,183.00 547.97,174.57 548.39,165.23 548.81,160.06 549.24,163.79 549.66,172.02 550.08,178.74 550.51,172.66 550.93,158.37 551.35,148.71 551.78,147.63 552.20,156.32 552.62,168.62 553.05,179.18 553.47,186.04 553.89,194.74 554.32,207.34 554.74,218.72 555.16,224.64 555.59,224.76 556.01,218.42 556.43,207.91 556.86,199.62 557.28,192.46 557.70,186.31 558.13,182.18 558.55,174.69 558.97,162.72 559.40,156.11 559.82,162.88 560.24,173.43 560.66,177.54 561.09,178.81 561.51,178.42 561.93,173.27 562.36,165.07 562.78,153.08 563.20,148.02 563.63,154.31 564.05,160.83 564.47,156.50 564.90,147.11 565.32,143.94 565.74,145.36 566.17,147.50 566.59,156.18 567.01,171.91 567.44,189.07 567.86,209.49 568.28,227.51 568.71,232.98 569.13,229.22 569.55,222.48 569.98,215.21 570.40,213.34 570.82,220.59 571.25,230.89 571.67,236.36 572.09,228.45 572.52,210.67 572.94,190.30 573.36,174.14 573.79,168.03 574.21,171.77 574.63,175.76 575.06,173.64 575.48,167.74 575.90,164.54 576.33,167.80 576.75,175.32 577.17,185.38 577.60,200.90 578.02,212.88 578.44,214.68 578.87,217.42 579.29,222.43 579.71,224.69 580.13,220.81 580.56,211.56 580.98,197.55 581.40,182.18 581.83,165.46 582.25,150.51 582.67,142.62 583.10,133.46 583.52,120.17 583.94,100.91 584.37,81.45 584.79,77.51 585.21,89.98 585.64,121.86 586.06,171.54 586.48,220.93 586.91,259.49 587.33,289.09 587.75,307.87 588.18,310.54 588.60,300.26 589.02,281.05 589.45,266.69 589.87,265.28 590.29,271.77 590.72,280.23 591.14,281.41 591.56,278.47 591.99,279.13 592.41,272.75 592.83,254.68 593.26,223.28 593.68,193.31 594.10,170.72 594.53,150.00 594.95,130.06 595.37,108.12 595.80,88.72 596.22,75.41 596.64,73.11 597.07,84.82 597.49,102.58 597.91,118.92 598.33,130.56 598.76,138.95 599.18,143.83 599.60,146.36 600.03,152.06 600.45,156.14 600.87,159.42 601.30,161.01 601.72,164.13 602.14,174.73 602.57,186.49 602.99,191.62 603.41,195.36 603.84,203.65 604.26,211.99 604.68,219.63 605.11,228.88 605.53,232.03 605.95,221.09 606.38,199.12 606.80,178.06 607.22,163.50 607.65,156.59 608.07,153.22 608.49,149.02 608.92,144.12 609.34,142.35 609.76,141.73 610.19,140.62 610.61,138.04 611.03,143.05 611.46,151.30 611.88,155.68 612.30,158.51 612.73,163.61 613.15,171.25 613.57,181.41 614.00,191.32 614.42,189.61 614.84,178.13 615.27,172.04 615.69,176.90 616.11,189.32 616.54,200.62 616.96,202.44 617.38,198.73 617.80,202.88 618.23,222.66 618.65,243.03 619.07,259.17 619.50,266.78 619.92,259.51 620.34,241.17 620.77,214.87 621.19,190.23 621.61,172.89 622.04,164.09 622.46,161.40 622.88,160.44 623.31,159.14 623.73,158.98 624.15,160.99 624.58,160.53 625.00,165.07 625.42,175.39 625.85,181.23 626.27,178.90 626.69,176.83 627.12,183.48 627.54,190.64 627.96,198.02 628.39,209.08 628.81,221.41 629.23,232.69 629.66,242.56 630.08,252.06 630.50,261.27 630.93,270.45 631.35,272.71 631.77,264.62 632.20,254.22 632.62,244.38 633.04,238.23 633.47,230.98 633.89,214.41 634.31,194.24 634.74,175.99 635.16,163.38 635.58,153.54 636.00,144.49 636.43,136.60 636.85,127.40 637.27,118.39 637.70,114.02 638.12,116.71 638.54,123.07 638.97,125.85 639.39,119.37 639.81,104.58 640.24,90.41 640.66,85.60 641.08,89.18 641.51,109.46 641.93,146.04 642.35,184.33 642.78,215.96 643.20,244.68 643.62,272.07 644.05,286.70 644.47,291.19 644.89,289.23 645.32,286.18 645.74,285.47 646.16,274.23 646.59,246.16 647.01,208.89 647.43,176.10 647.86,151.28 648.28,133.69 648.70,127.35 649.13,128.63 649.55,136.65 649.97,150.69 650.40,163.47 650.82,168.31 651.24,164.75 651.67,156.86 652.09,147.25 652.51,134.62 652.94,119.99 653.36,107.98 653.78,112.83 654.21,131.39 654.63,144.44 655.05,150.96 655.47,159.03 655.90,174.80 656.32,191.51 656.74,195.29 657.17,190.39 657.59,188.59 658.01,197.70 658.44,210.08 658.86,217.99 659.28,225.10 659.71,239.25 660.13,256.34 660.55,275.12 660.98,289.05 661.40,282.92 661.82,263.50 662.25,237.59 662.67,207.12 663.09,181.68 663.52,164.50 663.94,148.71 664.36,130.27 664.79,116.59 665.21,120.20 665.63,131.64 666.06,141.64 666.48,149.96 666.90,158.53 667.33,171.20 667.75,185.56 668.17,205.80 668.60,225.69 669.02,241.28 669.44,255.02 669.87,267.78 670.29,269.97 670.71,259.24 671.14,246.84 671.56,239.27 671.98,237.29 672.41,237.15 672.83,232.80 673.25,223.64 673.68,213.02 674.10,206.89 674.52,206.00 674.94,202.26 675.37,189.18 675.79,172.09 676.21,151.26 676.64,122.95 677.06,98.43 677.48,86.63 677.91,81.29 678.33,80.97 678.75,90.29 679.18,108.44 679.60,132.07 680.02,153.17 680.45,166.69 680.87,166.57 681.29,155.27 681.72,140.21 682.14,128.99 682.56,120.08 682.99,117.51 683.41,128.08 683.83,146.59 684.26,165.30 684.68,189.57 685.10,223.75 685.53,262.36 685.95,297.41 686.37,324.21 686.80,337.98 687.22,339.41 687.64,332.05 688.07,314.23 688.49,291.76 688.91,272.46 689.34,253.52 689.76,225.83 690.18,188.38 690.61,140.00 691.03,91.39 691.45,54.61 691.88,30.24 692.30,21.97 692.72,26.44 693.14,34.91 693.57,44.60 693.99,62.88 694.41,86.03 694.84,105.22 695.26,121.22 695.68,140.21 696.11,168.21 696.53,195.52 696.95,219.06 697.38,242.83 697.80,259.94 698.22,265.05 698.65,264.75 699.07,263.36 699.49,269.95 699.92,278.18 700.34,275.49 700.76,258.67 701.19,233.17 701.61,206.78 702.03,179.45 702.46,157.12 702.88,134.33 703.30,113.49 703.73,104.61 704.15,113.18 704.57,141.39 705.00,175.14 705.42,197.77 705.84,208.80 706.27,214.71 706.69,224.78 707.11,233.26 707.54,234.58 707.96,228.43 708.38,220.72 708.81,215.55 709.23,211.26 709.65,207.62 710.08,204.38 710.50,193.58 710.92,181.41 711.35,172.18 711.77,163.25 712.19,162.02 712.61,174.25 713.04,187.75 713.46,201.83 713.88,214.98 714.31,226.94 714.73,232.46 715.15,226.17 715.58,217.62 716.00,209.60 716.42,204.02 716.85,203.06 717.27,200.10 717.69,192.69 718.12,183.26 718.54,171.93 718.96,161.51 719.39,150.60 719.81,145.38 720.23,149.85 720.66,153.10 721.08,151.39 721.50,147.89 721.93,149.32 722.35,155.47 722.77,163.31 723.20,166.53 723.62,168.08 724.04,171.81 724.47,178.52 724.89,186.58 725.31,187.20 725.74,180.45 726.16,168.65 726.58,162.90 727.01,164.54 727.43,173.07 727.85,190.02 728.28,206.32 728.70,213.00 729.12,209.15 729.55,202.95 729.97,205.52 730.39,217.42 730.81,229.09 731.24,237.79 731.66,243.35 732.08,248.69 732.51,254.84 732.93,261.70 733.35,264.73 733.78,260.24 734.20,252.17 734.62,233.17 735.05,202.47 735.47,170.99 735.89,145.31 736.32,127.88 736.74,114.82 737.16,104.99 737.59,98.23 738.01,96.90 738.43,105.09 738.86,125.80 739.28,154.27 739.70,175.46 740.13,179.88 740.55,171.75 740.97,162.31 741.40,158.14 741.82,158.55 742.24,153.40 742.67,142.76 743.09,133.44 743.51,129.08 743.94,131.95 744.36,144.28 744.78,167.55 745.21,193.24 745.63,208.83 746.05,212.34 746.48,214.25 746.90,222.41 747.32,239.57 747.75,259.85 748.17,274.85 748.59,287.79 749.02,292.76 749.44,289.07 749.86,282.73 750.28,275.10 750.71,268.86 751.13,254.63 751.55,225.67 751.98,191.14 752.40,156.11 752.82,126.64 753.25,97.63 753.67,70.22 754.09,51.00 754.52,42.98 754.94,40.29 755.36,45.99 755.79,63.17 756.21,84.73 756.63,102.28 757.06,114.89 757.48,127.10 757.90,140.27 758.33,158.96 758.75,181.00 759.17,200.37 759.60,210.67 760.02,214.36 760.44,218.44 760.87,223.34 761.29,233.80 761.71,245.11 762.14,249.42 762.56,249.12 762.98,255.09 763.41,271.98 763.83,283.26 764.25,281.69 764.68,265.87 765.10,237.93 765.52,209.97 765.95,190.41 766.37,179.36 766.79,172.52 767.22,173.07 767.64,178.24 768.06,182.16 768.48,188.22 768.91,203.24 769.33,227.97 769.75,253.02 770.18,261.88 770.60,246.04 771.02,213.04 771.45,174.16 771.87,135.94 772.29,103.47 772.72,81.34 773.14,69.97 773.56,69.83 773.99,73.61 774.41,78.19 774.83,90.80 775.26,118.39 775.68,154.49 776.10,188.73 776.53,216.01 776.95,230.66 777.37,239.25 777.80,250.94 778.22,256.85 778.64,252.83 779.07,238.93 779.49,226.92 779.91,223.25 780.34,220.06 780.76,217.12 781.18,213.63 781.61,204.52 782.03,190.91 782.45,190.98 782.88,209.42 783.30,232.60 783.72,252.31 784.15,264.48 784.57,269.97 784.99,267.65 785.42,254.02 785.84,231.27 786.26,207.07 786.69,182.91 787.11,155.50 787.53,122.36 787.95,92.80 788.38,76.92 788.80,75.18 789.22,85.28 789.65,101.17 790.07,114.61 790.49,126.99 790.92,147.09 791.34,173.91 791.76,199.85 792.19,217.78 792.61,224.55 793.03,223.14 793.46,212.84 793.88,201.88 794.30,199.00 794.73,193.72 795.15,177.88 795.57,159.19 796.00,148.39 796.42,143.08 796.84,140.77 797.27,140.52 797.69,141.48 798.11,145.79 798.54,154.79 798.96,164.11 799.38,167.35 799.81,170.17 800.23,175.03 800.65,178.52 801.08,185.76 801.50,192.94 801.92,198.62 802.35,202.65 802.77,203.90 803.19,202.92 803.62,197.20 804.04,194.72 804.46,201.19 804.89,214.16 805.31,225.19 805.73,231.64 806.15,235.08 806.58,231.91 807.00,225.85 807.42,217.94 807.85,212.72 808.27,211.67 808.69,209.30 809.12,194.42 809.54,168.24 809.96,149.34 810.39,149.28 810.81,166.85 811.23,190.34 811.66,207.25 812.08,213.07 812.50,209.71 812.93,203.56 813.35,198.48 813.77,191.64 814.20,181.43 814.62,170.63 815.04,166.09 815.47,175.01 815.89,190.09 816.31,194.54 816.74,186.49 817.16,174.25 817.58,166.94 818.01,168.01 818.43,169.70 818.85,166.41 819.28,164.00 819.70,177.79 820.12,210.83 820.55,247.39 820.97,271.84 821.39,277.97 821.82,271.68 822.24,262.88 822.66,255.57 823.09,241.67 823.51,211.88 823.93,173.18 824.36,139.23 824.78,115.34 825.20,102.49 825.62,94.62 826.05,83.30 826.47,70.72 826.89,65.00 827.32,66.21 827.74,78.58 828.16,104.65 828.59,132.00 829.01,153.70 829.43,175.42 829.86,202.40 830.28,231.27 830.70,248.87 831.13,241.42 831.55,220.15 831.97,200.23 832.40,184.03 832.82,172.73 833.24,168.46 833.67,168.99 834.09,175.78 834.51,190.59 834.94,205.43 835.36,218.33 835.78,230.25 836.21,237.79 836.63,236.93 837.05,226.97 837.48,208.01 837.90,181.82 838.32,157.43 838.75,141.32 839.17,135.28 839.59,136.22 840.02,142.76 840.44,154.20 840.86,170.77 841.29,188.06 841.71,206.78 842.13,219.77 842.56,219.92 842.98,217.62 843.40,214.43 843.83,205.86 844.25,195.15 844.67,183.87 845.09,174.03 845.52,173.05 845.94,189.41 846.36,213.07 846.79,229.31 847.21,233.46 847.63,233.10 848.06,238.18 848.48,243.54 848.90,242.76 849.33,244.58 849.75,255.41 850.17,265.46 850.60,261.86 851.02,241.37 851.44,212.77 851.87,181.04 852.29,150.78 852.71,132.43 853.14,125.30 853.56,118.60 853.98,108.37 854.41,101.51 854.83,100.73 855.25,103.58 855.68,111.01 856.10,120.10 856.52,128.45 856.95,137.83 857.37,148.18 857.79,166.78 858.22,190.41 858.64,211.95 859.06,226.42 859.49,237.45 859.91,245.52 860.33,239.25 860.76,220.65 861.18,195.93 861.60,168.28 862.03,146.84 862.45,134.05 862.87,128.01 863.29,130.43 863.72,141.46 864.14,166.98 864.56,198.27 864.99,221.02 865.41,235.74 865.83,244.70 866.26,245.15 866.68,239.32 867.10,229.63 867.53,214.11 867.95,196.18 868.37,178.79 868.80,165.91 869.22,156.75 869.64,146.13 870.07,131.66 870.49,118.03 870.91,108.69 871.34,106.70 871.76,110.99 872.18,116.16 872.61,126.67 873.03,151.14 873.45,185.42 873.88,218.74 874.30,245.06 874.72,268.40 875.15,289.32 875.57,302.27 875.99,304.70 876.42,297.53 876.84,279.11 877.26,251.56 877.69,218.58 878.11,187.70 878.53,165.39 878.96,154.15 879.38,146.93 879.80,141.87 880.23,134.48 880.65,124.89 881.07,120.90 881.50,129.29 881.92,149.39 882.34,175.94 882.76,199.41 883.19,218.26 883.61,229.50 884.03,228.06 884.46,213.50 884.88,195.24 885.30,182.71 885.73,172.98 886.15,162.70 886.57,151.62 887.00,143.05 887.42,143.03 887.84,156.80 888.27,181.82 888.69,207.37 889.11,231.37 889.54,251.56 889.96,263.68 890.38,268.35 890.81,267.99 891.23,272.59 891.65,279.73 892.08,273.19 892.50,254.86 892.92,232.35 893.35,213.59 893.77,196.45 894.19,170.45 894.62,137.74 895.04,105.34 895.46,79.72 895.89,67.44 896.31,66.43 896.73,69.03 897.16,70.10 897.58,73.09 898.00,79.58 898.43,90.68 898.85,109.42 899.27,135.60 899.70,172.45 900.12,212.22 900.54,249.67 900.96,275.56 901.39,277.49 901.81,256.41 902.23,227.56 902.66,210.47 903.08,200.55 903.50,185.97 903.93,172.43 904.35,168.33 904.77,175.73 905.20,191.03 905.62,210.47 906.04,233.42 906.47,252.36 906.89,262.59 907.31,267.49 907.74,269.24 908.16,263.14 908.58,242.12 909.01,205.80 909.43,162.29 909.85,118.76 910.28,82.98 910.70,63.47 911.12,57.59 911.55,59.78 911.97,69.28 912.39,84.57 912.82,103.40 913.24,124.98 913.66,147.29 914.09,164.29 914.51,175.64 914.93,186.42 915.36,193.63 915.78,198.05 916.20,198.30 916.63,196.84 917.05,194.33 917.47,191.60 917.90,193.58 918.32,202.22 918.74,209.58 919.17,211.99 919.59,214.30 920.01,218.79 920.43,222.66 920.86,229.43 921.28,238.95 921.70,242.74 922.13,239.68 922.55,232.96 922.97,227.67 923.40,223.12 923.82,218.85 924.24,211.01 924.67,206.05 925.09,206.68 925.51,206.11 925.94,201.99 926.36,195.06 926.78,181.55 927.21,165.25 927.63,154.77 928.05,155.06 928.48,157.09 928.90,161.24 929.32,173.59 929.75,193.08 930.17,217.03 930.59,241.53 931.02,261.18 931.44,270.66 931.86,268.70 932.29,254.73 932.71,234.42 933.13,216.80 933.56,198.66 933.98,176.81 934.40,152.49 934.83,129.68 935.25,119.37 935.67,119.22 936.10,116.37 936.52,112.10 936.94,109.76 937.37,113.49 937.79,122.93 938.21,138.93 938.63,156.07 939.06,172.04 939.48,186.79 939.90,195.08 940.33,198.18 940.75,209.46 941.17,238.00 941.60,272.09 942.02,291.44 942.44,287.82 942.87,265.96 943.29,235.29 943.71,205.11 944.14,182.59 944.56,174.78 944.98,176.33 945.41,176.24 945.83,175.69 946.25,177.97 946.68,183.80 947.10,185.38 947.52,179.54 947.95,171.25 948.37,161.19" style="stroke-width: 1.07;stroke: #00BFC4;stroke-opacity: 0.75;stroke-linecap: butt;"/>
</g><g clip-path="url(#c2)">
<g><text x="33.71" y="284.03" text-anchor="end" style="font-family: Arial;font-size: 8.80px;fill: #4D4D4D;" textLength="15.16px" lengthAdjust="spacingAndGlyphs">-0.3</text></g>
<g><text x="33.71" y="188.79" text-anchor="end" style="font-family: Arial;font-size: 8.80px;fill: #4D4D4D;" textLength="12.23px" lengthAdjust="spacingAndGlyphs">0.0</text></g>
<g><text x="33.71" y="93.56" text-anchor="end" style="font-family: Arial;font-size: 8.80px;fill: #4D4D4D;" textLength="12.23px" lengthAdjust="spacingAndGlyphs">0.3</text></g>
<polyline points="35.90,280.87 38.64,280.87" style="stroke-width: 1.07;stroke: #333333;stroke-linecap: butt;"/>
<polyline points="35.90,185.64 38.64,185.64" style="stroke-width: 1.07;stroke: #333333;stroke-linecap: butt;"/>
<polyline points="35.90,90.41 38.64,90.41" style="stroke-width: 1.07;stroke: #333333;stroke-linecap: butt;"/>
<polyline points="81.54,371.01 81.54,368.27" style="stroke-width: 1.07;stroke: #333333;stroke-linecap: butt;"/>
<polyline points="293.17,371.01 293.17,368.27" style="stroke-width: 1.07;stroke: #333333;stroke-linecap: butt;"/>
<polyline points="504.79,371.01 504.79,368.27" style="stroke-width: 1.07;stroke: #333333;stroke-linecap: butt;"/>
<polyline points="716.42,371.01 716.42,368.27" style="stroke-width: 1.07;stroke: #333333;stroke-linecap: butt;"/>
<polyline points="928.05,371.01 928.05,368.27" style="stroke-width: 1.07;stroke: #333333;stroke-linecap: butt;"/>
<g><text x="81.54" y="379.50" text-anchor="middle" style="font-family: Arial;font-size: 8.80px;fill: #4D4D4D;" textLength="4.90px" lengthAdjust="spacingAndGlyphs">0</text></g>
<g><text x="293.17" y="379.50" text-anchor="middle" style="font-family: Arial;font-size: 8.80px;fill: #4D4D4D;" textLength="14.69px" lengthAdjust="spacingAndGlyphs">500</text></g>
<g><text x="504.79" y="379.50" text-anchor="middle" style="font-family: Arial;font-size: 8.80px;fill: #4D4D4D;" textLength="19.58px" lengthAdjust="spacingAndGlyphs">1000</text></g>
<g><text x="716.42" y="379.50" text-anchor="middle" style="font-family: Arial;font-size: 8.80px;fill: #4D4D4D;" textLength="19.58px" lengthAdjust="spacingAndGlyphs">1500</text></g>
<g><text x="928.05" y="379.50" text-anchor="middle" style="font-family: Arial;font-size: 8.80px;fill: #4D4D4D;" textLength="19.58px" lengthAdjust="spacingAndGlyphs">2000</text></g>
<rect x="1002.65" y="156.21" width="71.87" height="61.32" style="stroke-width: 1.07;stroke: none;fill: #FFFFFF;"/>
<g><text x="1008.13" y="170.80" style="font-family: Arial;font-size: 11.00px;" textLength="52.00px" lengthAdjust="spacingAndGlyphs">plot_group</text></g>
<rect x="1008.13" y="177.49" width="17.28" height="17.28" style="stroke-width: 1.07;stroke: none;fill: #F2F2F2;"/>
<line x1="1009.86" y1="186.13" x2="1023.68" y2="186.13" style="stroke-width: 1.07;stroke: #F8766D;stroke-opacity: 0.75;stroke-linecap: butt;"/>
<rect x="1008.13" y="194.77" width="17.28" height="17.28" style="stroke-width: 1.07;stroke: none;fill: #F2F2F2;"/>
<line x1="1009.86" y1="203.41" x2="1023.68" y2="203.41" style="stroke-width: 1.07;stroke: #00BFC4;stroke-opacity: 0.75;stroke-linecap: butt;"/>
<g><text x="1030.89" y="189.29" style="font-family: Arial;font-size: 8.80px;" textLength="38.15px" lengthAdjust="spacingAndGlyphs">Explosion</text></g>
<g><text x="1030.89" y="206.57" style="font-family: Arial;font-size: 8.80px;" textLength="31.80px" lengthAdjust="spacingAndGlyphs">Volcano</text></g>
</g>
</svg>