<svg xmlns="http://www.w3.org/2000/svg" xmlns:xlink="http://www.w3.org/1999/xlink" class="httpgd" width="1080.00" height="300.00" viewBox="0 0 1080.00 300.00">
<defs>
  <style type='text/css'><![CDATA[
    .httpgd line, .httpgd polyline, .httpgd polygon, .httpgd path, .httpgd rect, .httpgd circle {
      fill: none;
      stroke: #000000;
      stroke-linecap: round;
      stroke-linejoin: round;
      stroke-miterlimit: 10.00;
    }
  ]]></style>
<clipPath id="c0"><rect x="0.00" y="0.00" width="1080.00" height="300.00"/></clipPath>
<clipPath id="c1"><rect x="36.20" y="23.34" width="964.41" height="244.93"/></clipPath>
<clipPath id="c2"><rect x="0.00" y="0.00" width="1080.00" height="300.00"/></clipPath>
</defs>
<rect width="100%" height="100%" style="stroke: none;fill: #FFFFFF;"/>
<g clip-path="url(#c0)">
<rect x="0.00" y="0.00" width="1080.00" height="300.00" style="stroke-width: 1.07;stroke: #FFFFFF;fill: #FFFFFF;"/>
</g><g clip-path="url(#c1)">
<rect x="36.20" y="23.34" width="964.41" height="244.93" style="stroke-width: 1.07;stroke: none;fill: #EBEBEB;"/>
<polyline points="36.20,253.01 1000.60,253.01" style="stroke-width: 0.53;stroke: #FFFFFF;stroke-linecap: butt;"/>
<polyline points="36.20,210.56 1000.60,210.56" style="stroke-width: 0.53;stroke: #FFFFFF;stroke-linecap: butt;"/>
<polyline points="36.20,168.12 1000.60,168.12" style="stroke-width: 0.53;stroke: #FFFFFF;stroke-linecap: butt;"/>
<polyline points="36.20,125.67 1000.60,125.67" style="stroke-width: 0.53;stroke: #FFFFFF;stroke-linecap: butt;"/>
<polyline points="36.20,83.22 1000.60,83.22" style="stroke-width: 0.53;stroke: #FFFFFF;stroke-linecap: butt;"/>
<polyline points="36.20,40.78 1000.60,40.78" style="stroke-width: 0.53;stroke: #FFFFFF;stroke-linecap: butt;"/>
<polyline points="221.25,268.27 221.25,23.34" style="stroke-width: 0.53;stroke: #FFFFFF;stroke-linecap: butt;"/>
<polyline points="515.46,268.27 515.46,23.34" style="stroke-width: 0.53;stroke: #FFFFFF;stroke-linecap: butt;"/>
<polyline points="809.66,268.27 809.66,23.34" style="stroke-width: 0.53;stroke: #FFFFFF;stroke-linecap: butt;"/>
<polyline points="36.20,231.79 1000.60,231.79" style="stroke-width: 1.07;stroke: #FFFFFF;stroke-linecap: butt;"/>
<polyline points="36.20,189.34 1000.60,189.34" style="stroke-width: 1.07;stroke: #FFFFFF;stroke-linecap: butt;"/>
<polyline points="36.20,146.89 1000.60,146.89" style="stroke-width: 1.07;stroke: #FFFFFF;stroke-linecap: butt;"/>
<polyline points="36.20,104.45 1000.60,104.45" style="stroke-width: 1.07;stroke: #FFFFFF;stroke-linecap: butt;"/>
<polyline points="36.20,62.00 1000.60,62.00" style="stroke-width: 1.07;stroke: #FFFFFF;stroke-linecap: butt;"/>
<polyline points="74.15,268.27 74.15,23.34" style="stroke-width: 1.07;stroke: #FFFFFF;stroke-linecap: butt;"/>
<polyline points="368.36,268.27 368.36,23.34" style="stroke-width: 1.07;stroke: #FFFFFF;stroke-linecap: butt;"/>
<polyline points="662.56,268.27 662.56,23.34" style="stroke-width: 1.07;stroke: #FFFFFF;stroke-linecap: butt;"/>
<polyline points="956.77,268.27 956.77,23.34" style="stroke-width: 1.07;stroke: #FFFFFF;stroke-linecap: butt;"/>
<polyline points="97.69,145.55 103.57,141.60 109.46,144.68 115.34,145.74 121.22,147.31 127.11,147.04 132.99,147.95 138.88,143.95 144.76,147.27 150.64,154.50 156.53,153.04 162.41,152.09 168.30,149.14 174.18,149.67 180.06,148.20 185.95,145.56 191.83,145.21 197.72,145.20 203.60,149.12 209.49,150.69 215.37,143.78 221.25,139.75 227.14,143.78 233.02,149.46 238.91,146.13 244.79,145.77 250.67,148.40 256.56,147.59 262.44,147.17 268.33,147.54 274.21,152.79 280.09,152.77 285.98,147.85 291.86,144.08 297.75,145.92 303.63,147.17 309.52,146.74 315.40,147.10 321.28,143.24 327.17,143.76 333.05,143.13 338.94,143.46 344.82,147.64 350.70,143.78 356.59,145.76 362.47,151.05 368.36,148.74 374.24,149.08 380.12,145.90 386.01,146.94 391.89,152.98 397.78,150.10 403.66,146.20 409.54,149.10 415.43,151.46 421.31,144.01 427.20,144.26 433.08,143.61 438.97,140.87 444.85,144.82 450.73,146.08 456.62,146.42 462.50,146.59 468.39,143.65 474.27,144.36 480.15,145.32 486.04,147.21 491.92,151.30 497.81,151.36 503.69,151.96 509.57,149.88 515.46,150.10 521.34,146.77 527.23,142.15 533.11,141.19 539.00,141.42 544.88,147.92 550.76,149.94 556.65,148.34 562.53,150.34 568.42,149.08 574.30,145.76 580.18,148.26 586.07,147.72 591.95,145.04 597.84,145.71 603.72,149.02 609.60,146.51 615.49,142.80 621.37,149.22 627.26,142.49 633.14,141.98 639.03,151.18 644.91,146.39 650.79,145.92 656.68,146.60 662.56,143.01 668.45,144.69 674.33,144.55 680.21,144.72 686.10,146.67 691.98,145.29 697.87,142.47 703.75,143.19 709.63,147.48 715.52,147.88 721.40,147.02 727.29,149.55 733.17,152.02 739.06,149.76 744.94,151.00 750.82,149.76 756.71,147.66 762.59,150.70 768.48,149.13 774.36,144.50 780.24,144.68 786.13,143.66 792.01,143.62 797.90,144.58 803.78,141.33 809.66,145.56 815.55,148.30 821.43,148.74 827.32,150.95 833.20,150.09 839.09,148.97 844.97,150.86 850.85,147.97 856.74,142.13 862.62,143.30 868.51,145.85 874.39,146.43 880.27,148.94 886.16,146.70 892.04,146.66 897.93,148.02 903.81,146.29 909.69,144.85 915.58,145.64 921.46,147.62 927.35,148.35 933.23,151.30 939.12,151.59 945.00,146.90 950.88,143.45 956.77,147.75" style="stroke-width: 1.07;stroke: #F8766D;stroke-opacity: 0.80;stroke-linecap: butt;"/>
<polyline points="80.03,144.81 85.92,154.54 91.80,159.00 97.69,123.85 103.57,129.00 109.46,166.86 115.34,163.27 121.22,130.13 127.11,127.91 132.99,170.50 138.88,147.27 144.76,143.39 150.64,156.83 156.53,164.69 162.41,143.44 168.30,131.60 174.18,158.94 180.06,158.84 185.95,132.85 191.83,130.21 197.72,158.88 203.60,174.54 209.49,139.13 215.37,102.58 221.25,142.75 227.14,190.65 233.02,161.87 238.91,89.24 244.79,141.31 250.67,201.18 256.56,158.62 262.44,87.55 268.33,142.79 274.21,222.21 280.09,158.53 285.98,67.87 291.86,127.70 297.75,229.57 303.63,163.54 309.52,66.17 315.40,129.14 321.28,214.11 327.17,165.64 333.05,63.66 338.94,130.45 344.82,230.80 350.70,150.20 356.59,71.59 362.47,151.61 368.36,221.56 374.24,151.56 380.12,58.89 386.01,155.74 391.89,245.74 397.78,140.05 403.66,43.26 409.54,167.37 415.43,255.16 421.31,110.25 427.20,44.26 433.08,164.76 438.97,244.22 444.85,126.04 450.73,49.32 456.62,166.08 462.50,244.91 468.39,114.30 474.27,52.13 480.15,169.95 486.04,252.45 491.92,130.67 497.81,52.36 503.69,172.35 509.57,244.14 515.46,131.56 521.34,39.01 527.23,153.88 533.11,240.30 539.00,132.47 544.88,65.03 550.76,161.97 556.65,233.89 562.53,140.46 568.42,60.00 574.30,148.69 580.18,243.90 586.07,138.29 591.95,49.30 597.84,151.37 603.72,257.13 609.60,128.23 615.49,34.47 621.37,177.04 627.26,230.22 633.14,126.20 639.03,71.25 644.91,157.88 650.79,228.35 656.68,128.90 662.56,56.91 668.45,164.60 674.33,227.78 680.21,129.59 686.10,64.72 691.98,159.08 697.87,216.50 703.75,132.45 709.63,81.87 715.52,160.71 721.40,213.06 727.29,142.57 733.17,91.76 739.06,151.63 744.94,218.05 750.82,137.61 756.71,83.35 762.59,163.80 768.48,211.77 774.36,119.08 780.24,84.07 786.13,159.73 792.01,211.60 797.90,122.95 803.78,71.04 809.66,176.65 815.55,222.56 821.43,124.69 827.32,79.91 833.20,173.19 839.09,218.09 844.97,132.25 850.85,68.35 856.74,149.82 862.62,222.79 868.51,142.44 874.39,70.69 880.27,159.84 886.16,213.85 892.04,142.27 897.93,76.12 903.81,152.92 909.69,208.08 915.58,145.43 921.46,84.03 927.35,155.85 933.23,219.90 939.12,146.57 945.00,65.28 950.88,142.07 956.77,237.07" style="stroke-width: 1.07;stroke: #00BFC4;stroke-opacity: 0.80;stroke-linecap: butt;"/>
</g><g clip-path="url(#c2)">
<g><text x="31.27" y="234.94" text-anchor="end" style="font-family: Arial;font-size: 8.80px;fill: #4D4D4D;" textLength="12.72px" lengthAdjust="spacingAndGlyphs">-10</text></g>
<g><text x="31.27" y="192.49" text-anchor="end" style="font-family: Arial;font-size: 8.80px;fill: #4D4D4D;" textLength="7.83px" lengthAdjust="spacingAndGlyphs">-5</text></g>
<g><text x="31.27" y="150.05" text-anchor="end" style="font-family: Arial;font-size: 8.80px;fill: #4D4D4D;" textLength="4.90px" lengthAdjust="spacingAndGlyphs">0</text></g>
<g><text x="31.27" y="107.60" text-anchor="end" style="font-family: Arial;font-size: 8.80px;fill: #4D4D4D;" textLength="4.90px" lengthAdjust="spacingAndGlyphs">5</text></g>
<g><text x="31.27" y="65.15" text-anchor="end" style="font-family: Arial;font-size: 8.80px;fill: #4D4D4D;" textLength="9.79px" lengthAdjust="spacingAndGlyphs">10</text></g>
<polyline points="33.46,231.79 36.20,231.79" style="stroke-width: 1.07;stroke: #333333;stroke-linecap: butt;"/>
<polyline points="33.46,189.34 36.20,189.34" style="stroke-width: 1.07;stroke: #333333;stroke-linecap: butt;"/>
<polyline points="33.46,146.89 36.20,146.89" style="stroke-width: 1.07;stroke: #333333;stroke-linecap: butt;"/>
<polyline points="33.46,104.45 36.20,104.45" style="stroke-width: 1.07;stroke: #333333;stroke-linecap: butt;"/>
<polyline points="33.46,62.00 36.20,62.00" style="stroke-width: 1.07;stroke: #333333;stroke-linecap: butt;"/>
<polyline points="74.15,271.01 74.15,268.27" style="stroke-width: 1.07;stroke: #333333;stroke-linecap: butt;"/>
<polyline points="368.36,271.01 368.36,268.27" style="stroke-width: 1.07;stroke: #333333;stroke-linecap: butt;"/>
<polyline points="662.56,271.01 662.56,268.27" style="stroke-width: 1.07;stroke: #333333;stroke-linecap: butt;"/>
<polyline points="956.77,271.01 956.77,268.27" style="stroke-width: 1.07;stroke: #333333;stroke-linecap: butt;"/>
<g><text x="74.15" y="279.50" text-anchor="middle" style="font-family: Arial;font-size: 8.80px;fill: #4D4D4D;" textLength="4.90px" lengthAdjust="spacingAndGlyphs">0</text></g>
<g><text x="368.36" y="279.50" text-anchor="middle" style="font-family: Arial;font-size: 8.80px;fill: #4D4D4D;" textLength="9.79px" lengthAdjust="spacingAndGlyphs">50</text></g>
<g><text x="662.56" y="279.50" text-anchor="middle" style="font-family: Arial;font-size: 8.80px;fill: #4D4D4D;" textLength="14.69px" lengthAdjust="spacingAndGlyphs">100</text></g>
<g><text x="956.77" y="279.50" text-anchor="middle" style="font-family: Arial;font-size: 8.80px;fill: #4D4D4D;" textLength="14.69px" lengthAdjust="spacingAndGlyphs">150</text></g>
<rect x="1011.56" y="115.14" width="62.96" height="61.32" style="stroke-width: 1.07;stroke: none;fill: #FFFFFF;"/>
<g><text x="1017.04" y="129.73" style="font-family: Arial;font-size: 11.00px;" textLength="52.00px" lengthAdjust="spacingAndGlyphs">plot_group</text></g>
<rect x="1017.04" y="136.42" width="17.28" height="17.28" style="stroke-width: 1.07;stroke: none;fill: #F2F2F2;"/>
<line x1="1018.77" y1="145.06" x2="1032.59" y2="145.06" style="stroke-width: 1.07;stroke: #F8766D;stroke-opacity: 0.80;stroke-linecap: butt;"/>
<rect x="1017.04" y="153.70" width="17.28" height="17.28" style="stroke-width: 1.07;stroke: none;fill: #F2F2F2;"/>
<line x1="1018.77" y1="162.34" x2="1032.59" y2="162.34" style="stroke-width: 1.07;stroke: #00BFC4;stroke-opacity: 0.80;stroke-linecap: butt;"/>
<g><text x="1039.80" y="148.22" style="font-family: Arial;font-size: 8.80px;" textLength="4.40px" lengthAdjust="spacingAndGlyphs">v</text></g>
<g><text x="1039.80" y="165.50" style="font-family: Arial;font-size: 8.80px;" textLength="4.40px" lengthAdjust="spacingAndGlyphs">x</text></g>
<g><text x="36.20" y="14.94" style="font-family: Arial;font-size: 13.20px;" textLength="90.17px" lengthAdjust="spacingAndGlyphs">Problem 1.3 (c)</text></g>
</g>
</svg>