<svg xmlns="http://www.w3.org/2000/svg" xmlns:xlink="http://www.w3.org/1999/xlink" class="httpgd" width="1080.00" height="300.00" viewBox="0 0 1080.00 300.00">
<defs>
  <style type='text/css'><![CDATA[
    .httpgd line, .httpgd polyline, .httpgd polygon, .httpgd path, .httpgd rect, .httpgd circle {
      fill: none;
      stroke: #000000;
      stroke-linecap: round;
      stroke-linejoin: round;
      stroke-miterlimit: 10.00;
    }
  ]]></style>
<clipPath id="c0"><rect x="0.00" y="0.00" width="1080.00" height="300.00"/></clipPath>
<clipPath id="c1"><rect x="59.04" y="59.04" width="990.72" height="167.52"/></clipPath>
<clipPath id="c2"><rect x="0.00" y="0.00" width="1080.00" height="300.00"/></clipPath>
<clipPath id="c3"><rect x="59.04" y="59.04" width="990.72" height="167.52"/></clipPath>
</defs>
<rect width="100%" height="100%" style="stroke: none;fill: #FFFFFF;"/>
<g clip-path="url(#c0)">
</g><g clip-path="url(#c1)">
<polyline points="95.73,145.45 100.34,138.20 104.95,147.32 109.56,125.59 114.17,136.90 118.78,147.18 123.39,135.49 128.00,133.25 132.61,134.70 137.22,142.58 141.83,126.33 146.44,136.36 151.05,145.40 155.66,159.64 160.27,129.79 164.88,140.25 169.49,139.99 174.10,131.41 178.71,132.50 183.32,134.54 187.93,131.63 192.54,132.85 197.15,139.18 201.76,157.63 206.37,134.31 210.98,140.35 215.59,141.24 220.20,152.99 224.81,144.12 229.42,136.11 234.02,127.70 238.63,140.76 243.24,136.38 247.85,140.33 252.46,152.16 257.07,143.56 261.68,143.37 266.29,140.38 270.90,130.01 275.51,133.02 280.12,141.32 284.73,142.11 289.34,133.62 293.95,134.87 298.56,146.00 303.17,146.17 307.78,136.59 312.39,132.98 317.00,140.85 321.61,131.97 326.22,136.29 330.83,145.32 335.44,136.80 340.05,149.94 344.66,127.04 349.27,122.14 353.88,143.13 358.49,149.18 363.10,134.75 367.71,141.05 372.32,118.38 376.93,140.20 381.54,133.68 386.15,139.60 390.76,146.49 395.36,138.16 399.97,155.98 404.58,126.74 409.19,138.48 413.80,120.42 418.41,135.60 423.02,146.19 427.63,134.39 432.24,148.20 436.85,151.05 441.46,137.24 446.07,143.81 450.68,139.84 455.29,139.18 459.90,145.12 464.51,144.93 469.12,141.05 473.73,129.31 478.34,153.47 482.95,134.54 487.56,136.87 492.17,130.34 496.78,142.57 501.39,136.54 506.00,137.46 510.61,144.70 515.22,129.05 519.83,129.47 524.44,133.59 529.05,125.66 533.66,134.85 538.27,151.26 542.88,144.97 547.49,150.79 552.10,144.08 556.70,145.39 561.31,220.36 565.92,147.99 570.53,65.24 575.14,145.70 579.75,190.27 584.36,133.44 588.97,71.79 593.58,136.41 598.19,179.03 602.80,145.53 607.41,94.91 612.02,127.04 616.63,190.05 621.24,141.70 625.85,103.19 630.46,142.71 635.07,178.69 639.68,135.43 644.29,108.55 648.90,144.37 653.51,157.60 658.12,141.76 662.73,114.53 667.34,140.74 671.95,157.84 676.56,140.50 681.17,118.14 685.78,145.94 690.39,162.69 695.00,139.31 699.61,127.06 704.22,135.09 708.83,169.75 713.44,137.11 718.04,138.80 722.65,142.54 727.26,157.94 731.87,145.68 736.48,128.26 741.09,156.96 745.70,140.27 750.31,154.73 754.92,134.08 759.53,149.82 764.14,155.52 768.75,121.19 773.36,131.58 777.97,151.34 782.58,161.85 787.19,135.82 791.80,133.37 796.41,142.69 801.02,154.16 805.63,153.14 810.24,144.02 814.85,130.91 819.46,150.32 824.07,152.22 828.68,118.69 833.29,136.05 837.90,146.01 842.51,130.38 847.12,128.28 851.73,145.38 856.34,123.42 860.95,142.13 865.56,149.60 870.17,141.14 874.78,140.69 879.38,119.21 883.99,136.46 888.60,135.76 893.21,142.75 897.82,142.83 902.43,138.16 907.04,132.80 911.65,123.10 916.26,130.66 920.87,127.41 925.48,150.85 930.09,132.53 934.70,137.88 939.31,151.62 943.92,135.19 948.53,142.48 953.14,126.75 957.75,145.60 962.36,143.69 966.97,149.12 971.58,141.43 976.19,135.35 980.80,146.39 985.41,133.24 990.02,150.65 994.63,148.48 999.24,126.96 1003.85,149.59 1008.46,136.16 1013.07,142.65" style="stroke-width: 0.75;"/>
</g><g clip-path="url(#c2)">
<g><text x="554.40" y="281.28" text-anchor="middle" style="font-family: Arial;font-size: 12.00px;" textLength="26.66px" lengthAdjust="spacingAndGlyphs">Time</text></g>
<g><text transform="translate(12.96,142.80) rotate(-90.00)" text-anchor="middle" style="font-family: Arial;font-size: 12.00px;" textLength="39.33px" lengthAdjust="spacingAndGlyphs">as.ts(x)</text></g>
<line x1="91.12" y1="226.56" x2="1013.07" y2="226.56" style="stroke-width: 0.75;"/>
<line x1="91.12" y1="226.56" x2="91.12" y2="233.76" style="stroke-width: 0.75;"/>
<line x1="321.61" y1="226.56" x2="321.61" y2="233.76" style="stroke-width: 0.75;"/>
<line x1="552.10" y1="226.56" x2="552.10" y2="233.76" style="stroke-width: 0.75;"/>
<line x1="782.58" y1="226.56" x2="782.58" y2="233.76" style="stroke-width: 0.75;"/>
<line x1="1013.07" y1="226.56" x2="1013.07" y2="233.76" style="stroke-width: 0.75;"/>
<g><text x="91.12" y="252.48" text-anchor="middle" style="font-family: Arial;font-size: 12.00px;" textLength="6.67px" lengthAdjust="spacingAndGlyphs">0</text></g>
<g><text x="321.61" y="252.48" text-anchor="middle" style="font-family: Arial;font-size: 12.00px;" textLength="13.35px" lengthAdjust="spacingAndGlyphs">50</text></g>
<g><text x="552.10" y="252.48" text-anchor="middle" style="font-family: Arial;font-size: 12.00px;" textLength="20.02px" lengthAdjust="spacingAndGlyphs">100</text></g>
<g><text x="782.58" y="252.48" text-anchor="middle" style="font-family: Arial;font-size: 12.00px;" textLength="20.02px" lengthAdjust="spacingAndGlyphs">150</text></g>
<g><text x="1013.07" y="252.48" text-anchor="middle" style="font-family: Arial;font-size: 12.00px;" textLength="20.02px" lengthAdjust="spacingAndGlyphs">200</text></g>
<line x1="59.04" y1="184.54" x2="59.04" y2="95.15" style="stroke-width: 0.75;"/>
<line x1="59.04" y1="184.54" x2="51.84" y2="184.54" style="stroke-width: 0.75;"/>
<line x1="59.04" y1="139.85" x2="51.84" y2="139.85" style="stroke-width: 0.75;"/>
<line x1="59.04" y1="95.15" x2="51.84" y2="95.15" style="stroke-width: 0.75;"/>
<g><text transform="translate(41.76,184.54) rotate(-90.00)" text-anchor="middle" style="font-family: Arial;font-size: 12.00px;" textLength="10.67px" lengthAdjust="spacingAndGlyphs">-5</text></g>
<g><text transform="translate(41.76,139.85) rotate(-90.00)" text-anchor="middle" style="font-family: Arial;font-size: 12.00px;" textLength="6.67px" lengthAdjust="spacingAndGlyphs">0</text></g>
<g><text transform="translate(41.76,95.15) rotate(-90.00)" text-anchor="middle" style="font-family: Arial;font-size: 12.00px;" textLength="6.67px" lengthAdjust="spacingAndGlyphs">5</text></g>
<polygon points="59.04,226.56 1049.76,226.56 1049.76,59.04 59.04,59.04" style="stroke-width: 0.75;" />
</g><g clip-path="url(#c3)">
<line x1="59.04" y1="139.74" x2="1049.76" y2="139.74" style="stroke-width: 0.75;stroke: #FF0000;"/>
</g>
</svg>